<svg width="283" height="133" viewBox="0 0 283 133" fill="none" xmlns="http://www.w3.org/2000/svg">
<path fill-rule="evenodd" clip-rule="evenodd" d="M57.7638 56.588C54.4501 56.588 51.7638 59.2743 51.7638 62.588V100.588C51.7638 103.902 54.4501 106.588 57.7638 106.588C61.0775 106.588 63.7638 103.902 63.7638 100.588V62.588C63.7638 59.2743 61.0775 56.588 57.7638 56.588ZM61.7638 115.591C61.7638 117.801 59.9729 119.593 57.7638 119.593C55.5547 119.593 53.7638 117.801 53.7638 115.591C53.7638 113.38 55.5547 111.588 57.7638 111.588C59.9729 111.588 61.7638 113.38 61.7638 115.591Z" fill="#2EC4B6"/>
<mask id="mask0" mask-type="alpha" maskUnits="userSpaceOnUse" x="51" y="56" width="13" height="64">
<path fill-rule="evenodd" clip-rule="evenodd" d="M57.7638 56.588C54.4501 56.588 51.7638 59.2743 51.7638 62.588V100.588C51.7638 103.902 54.4501 106.588 57.7638 106.588C61.0775 106.588 63.7638 103.902 63.7638 100.588V62.588C63.7638 59.2743 61.0775 56.588 57.7638 56.588ZM61.7638 115.591C61.7638 117.801 59.9729 119.593 57.7638 119.593C55.5547 119.593 53.7638 117.801 53.7638 115.591C53.7638 113.38 55.5547 111.588 57.7638 111.588C59.9729 111.588 61.7638 113.38 61.7638 115.591Z" fill="white"/>
</mask>
<g mask="url(#mask0)">
<rect x="51.7638" y="56.588" width="12" height="63" fill="#2EC4B6"/>
</g>
<path fill-rule="evenodd" clip-rule="evenodd" d="M270.229 91.0887C266.916 91.0887 264.229 93.775 264.229 97.0887V101.089C264.229 104.402 266.916 107.089 270.229 107.089C273.543 107.089 276.229 104.402 276.229 101.089V97.0887C276.229 93.775 273.543 91.0887 270.229 91.0887ZM274.229 116.091C274.229 118.302 272.439 120.094 270.229 120.094C268.02 120.094 266.229 118.302 266.229 116.091C266.229 113.881 268.02 112.089 270.229 112.089C272.439 112.089 274.229 113.881 274.229 116.091Z" fill="#2EC4B6"/>
<mask id="mask1" mask-type="alpha" maskUnits="userSpaceOnUse" x="264" y="91" width="13" height="30">
<path fill-rule="evenodd" clip-rule="evenodd" d="M270.229 91.0887C266.916 91.0887 264.229 93.775 264.229 97.0887V101.089C264.229 104.402 266.916 107.089 270.229 107.089C273.543 107.089 276.229 104.402 276.229 101.089V97.0887C276.229 93.775 273.543 91.0887 270.229 91.0887ZM274.229 116.091C274.229 118.302 272.439 120.094 270.229 120.094C268.02 120.094 266.229 118.302 266.229 116.091C266.229 113.881 268.02 112.089 270.229 112.089C272.439 112.089 274.229 113.881 274.229 116.091Z" fill="white"/>
</mask>
<g mask="url(#mask1)">
<rect x="264.229" y="91.0887" width="12" height="29" fill="#2EC4B6"/>
</g>
<path fill-rule="evenodd" clip-rule="evenodd" d="M226.489 75.1914C223.176 75.1914 220.489 77.8777 220.489 81.1914V101.191C220.489 104.505 223.176 107.191 226.489 107.191C229.803 107.191 232.489 104.505 232.489 101.191V81.1914C232.489 77.8777 229.803 75.1914 226.489 75.1914ZM230.489 116.194C230.489 118.405 228.699 120.197 226.489 120.197C224.28 120.197 222.489 118.405 222.489 116.194C222.489 113.983 224.28 112.191 226.489 112.191C228.699 112.191 230.489 113.983 230.489 116.194Z" fill="#2EC4B6"/>
<mask id="mask2" mask-type="alpha" maskUnits="userSpaceOnUse" x="220" y="75" width="13" height="46">
<path fill-rule="evenodd" clip-rule="evenodd" d="M226.489 75.1914C223.176 75.1914 220.489 77.8777 220.489 81.1914V101.191C220.489 104.505 223.176 107.191 226.489 107.191C229.803 107.191 232.489 104.505 232.489 101.191V81.1914C232.489 77.8777 229.803 75.1914 226.489 75.1914ZM230.489 116.194C230.489 118.405 228.699 120.197 226.489 120.197C224.28 120.197 222.489 118.405 222.489 116.194C222.489 113.983 224.28 112.191 226.489 112.191C228.699 112.191 230.489 113.983 230.489 116.194Z" fill="white"/>
</mask>
<g mask="url(#mask2)">
<rect x="220.489" y="75.1914" width="12" height="45" fill="#2EC4B6"/>
</g>
<path fill-rule="evenodd" clip-rule="evenodd" d="M184.726 58.4485C181.412 58.4485 178.726 61.1348 178.726 64.4485V101.448C178.726 104.762 181.412 107.448 184.726 107.448C188.039 107.448 190.726 104.762 190.726 101.448V64.4485C190.726 61.1348 188.039 58.4485 184.726 58.4485ZM188.726 116.451C188.726 118.662 186.935 120.454 184.726 120.454C182.516 120.454 180.726 118.662 180.726 116.451C180.726 114.241 182.516 112.448 184.726 112.448C186.935 112.448 188.726 114.241 188.726 116.451Z" fill="#2EC4B6"/>
<mask id="mask3" mask-type="alpha" maskUnits="userSpaceOnUse" x="178" y="58" width="13" height="63">
<path fill-rule="evenodd" clip-rule="evenodd" d="M184.726 58.4485C181.412 58.4485 178.726 61.1348 178.726 64.4485V101.448C178.726 104.762 181.412 107.448 184.726 107.448C188.039 107.448 190.726 104.762 190.726 101.448V64.4485C190.726 61.1348 188.039 58.4485 184.726 58.4485ZM188.726 116.451C188.726 118.662 186.935 120.454 184.726 120.454C182.516 120.454 180.726 118.662 180.726 116.451C180.726 114.241 182.516 112.448 184.726 112.448C186.935 112.448 188.726 114.241 188.726 116.451Z" fill="white"/>
</mask>
<g mask="url(#mask3)">
<rect x="178.726" y="58.4485" width="12" height="62" fill="#2EC4B6"/>
</g>
<path fill-rule="evenodd" clip-rule="evenodd" d="M142.962 64.0294C139.648 64.0294 136.962 66.7157 136.962 70.0294V101.029C136.962 104.343 139.648 107.029 142.962 107.029C146.276 107.029 148.962 104.343 148.962 101.029V70.0294C148.962 66.7157 146.276 64.0294 142.962 64.0294ZM146.962 116.032C146.962 118.243 145.171 120.035 142.962 120.035C140.753 120.035 138.962 118.243 138.962 116.032C138.962 113.821 140.753 112.029 142.962 112.029C145.171 112.029 146.962 113.821 146.962 116.032Z" fill="#1F8EFA"/>
<mask id="mask4" mask-type="alpha" maskUnits="userSpaceOnUse" x="136" y="64" width="13" height="57">
<path fill-rule="evenodd" clip-rule="evenodd" d="M142.962 64.0294C139.648 64.0294 136.962 66.7157 136.962 70.0294V101.029C136.962 104.343 139.648 107.029 142.962 107.029C146.276 107.029 148.962 104.343 148.962 101.029V70.0294C148.962 66.7157 146.276 64.0294 142.962 64.0294ZM146.962 116.032C146.962 118.243 145.171 120.035 142.962 120.035C140.753 120.035 138.962 118.243 138.962 116.032C138.962 113.821 140.753 112.029 142.962 112.029C145.171 112.029 146.962 113.821 146.962 116.032Z" fill="white"/>
</mask>
<g mask="url(#mask4)">
<rect x="136.962" y="64.0294" width="12" height="56" fill="#011627"/>
</g>
<path fill-rule="evenodd" clip-rule="evenodd" d="M16 82.6328C12.6863 82.6328 10 85.3191 10 88.6328V100.633C10 103.947 12.6863 106.633 16 106.633C19.3137 106.633 22 103.947 22 100.633V88.6328C22 85.3191 19.3137 82.6328 16 82.6328ZM20 115.635C20 117.846 18.2091 119.638 16 119.638C13.7909 119.638 12 117.846 12 115.635C12 113.425 13.7909 111.633 16 111.633C18.2091 111.633 20 113.425 20 115.635Z" fill="#1F8EFA"/>
<mask id="mask5" mask-type="alpha" maskUnits="userSpaceOnUse" x="10" y="82" width="12" height="38">
<path fill-rule="evenodd" clip-rule="evenodd" d="M16 82.6328C12.6863 82.6328 10 85.3191 10 88.6328V100.633C10 103.947 12.6863 106.633 16 106.633C19.3137 106.633 22 103.947 22 100.633V88.6328C22 85.3191 19.3137 82.6328 16 82.6328ZM20 115.635C20 117.846 18.2091 119.638 16 119.638C13.7909 119.638 12 117.846 12 115.635C12 113.425 13.7909 111.633 16 111.633C18.2091 111.633 20 113.425 20 115.635Z" fill="white"/>
</mask>
<g mask="url(#mask5)">
<rect x="10" y="82.6328" width="12" height="37" fill="#011627"/>
</g>
<path fill-rule="evenodd" clip-rule="evenodd" d="M98.4248 36.1244C95.1111 36.1244 92.4248 38.8107 92.4248 42.1244V101.124C92.4248 104.438 95.1111 107.124 98.4248 107.124C101.739 107.124 104.425 104.438 104.425 101.124V42.1244C104.425 38.8107 101.739 36.1244 98.4248 36.1244ZM102.425 116.127C102.425 118.338 100.634 120.13 98.4248 120.13C96.2157 120.13 94.4248 118.338 94.4248 116.127C94.4248 113.916 96.2157 112.124 98.4248 112.124C100.634 112.124 102.425 113.916 102.425 116.127Z" fill="#2EC4B6"/>
<mask id="mask6" mask-type="alpha" maskUnits="userSpaceOnUse" x="92" y="36" width="13" height="85">
<path fill-rule="evenodd" clip-rule="evenodd" d="M98.4248 36.1244C95.1111 36.1244 92.4248 38.8107 92.4248 42.1244V101.124C92.4248 104.438 95.1111 107.124 98.4248 107.124C101.739 107.124 104.425 104.438 104.425 101.124V42.1244C104.425 38.8107 101.739 36.1244 98.4248 36.1244ZM102.425 116.127C102.425 118.338 100.634 120.13 98.4248 120.13C96.2157 120.13 94.4248 118.338 94.4248 116.127C94.4248 113.916 96.2157 112.124 98.4248 112.124C100.634 112.124 102.425 113.916 102.425 116.127Z" fill="white"/>
</mask>
<g mask="url(#mask6)">
<rect x="92.4248" y="36.1244" width="12" height="84" fill="#2EC4B6"/>
</g>
<path d="M51.287 126.113H49.127V125.33H54.338V126.113H52.178V131.63H51.287V126.113ZM59.5239 126.86V131.63H58.7049V130.91C58.5309 131.156 58.2999 131.348 58.0119 131.486C57.7299 131.618 57.4209 131.684 57.0849 131.684C56.4489 131.684 55.9479 131.51 55.5819 131.162C55.2159 130.808 55.0329 130.289 55.0329 129.605V126.86H55.8969V129.506C55.8969 129.968 56.0079 130.319 56.2299 130.559C56.4519 130.793 56.7699 130.91 57.1839 130.91C57.6399 130.91 57.9999 130.772 58.2639 130.496C58.5279 130.22 58.6599 129.83 58.6599 129.326V126.86H59.5239ZM65.4798 129.272C65.4798 129.338 65.4738 129.425 65.4618 129.533H61.5918C61.6458 129.953 61.8288 130.292 62.1408 130.55C62.4588 130.802 62.8518 130.928 63.3198 130.928C63.8898 130.928 64.3488 130.736 64.6968 130.352L65.1738 130.91C64.9578 131.162 64.6878 131.354 64.3638 131.486C64.0458 131.618 63.6888 131.684 63.2928 131.684C62.7888 131.684 62.3418 131.582 61.9518 131.378C61.5618 131.168 61.2588 130.877 61.0428 130.505C60.8328 130.133 60.7278 129.713 60.7278 129.245C60.7278 128.783 60.8298 128.366 61.0338 127.994C61.2438 127.622 61.5288 127.334 61.8888 127.13C62.2548 126.92 62.6658 126.815 63.1218 126.815C63.5778 126.815 63.9828 126.92 64.3368 127.13C64.6968 127.334 64.9758 127.622 65.1738 127.994C65.3778 128.366 65.4798 128.792 65.4798 129.272ZM63.1218 127.544C62.7078 127.544 62.3598 127.67 62.0778 127.922C61.8018 128.174 61.6398 128.504 61.5918 128.912H64.6518C64.6038 128.51 64.4388 128.183 64.1568 127.931C63.8808 127.673 63.5358 127.544 63.1218 127.544Z" fill="#011627"/>
<path d="M95.9361 125.33L93.8301 131.63H92.8851L91.1661 126.599L89.4471 131.63H88.4841L86.3781 125.33H87.3051L89.0061 130.451L90.7791 125.33H91.6071L93.3441 130.478L95.0811 125.33H95.9361ZM100.862 129.272C100.862 129.338 100.856 129.425 100.844 129.533H96.9737C97.0277 129.953 97.2107 130.292 97.5227 130.55C97.8407 130.802 98.2337 130.928 98.7017 130.928C99.2717 130.928 99.7307 130.736 100.079 130.352L100.556 130.91C100.34 131.162 100.07 131.354 99.7457 131.486C99.4277 131.618 99.0707 131.684 98.6747 131.684C98.1707 131.684 97.7237 131.582 97.3337 131.378C96.9437 131.168 96.6407 130.877 96.4247 130.505C96.2147 130.133 96.1097 129.713 96.1097 129.245C96.1097 128.783 96.2117 128.366 96.4157 127.994C96.6257 127.622 96.9107 127.334 97.2707 127.13C97.6367 126.92 98.0477 126.815 98.5037 126.815C98.9597 126.815 99.3647 126.92 99.7187 127.13C100.079 127.334 100.358 127.622 100.556 127.994C100.76 128.366 100.862 128.792 100.862 129.272ZM98.5037 127.544C98.0897 127.544 97.7417 127.67 97.4597 127.922C97.1837 128.174 97.0217 128.504 96.9737 128.912H100.034C99.9857 128.51 99.8207 128.183 99.5387 127.931C99.2627 127.673 98.9177 127.544 98.5037 127.544ZM106.561 124.952V131.63H105.733V130.874C105.541 131.138 105.298 131.339 105.004 131.477C104.71 131.615 104.386 131.684 104.032 131.684C103.57 131.684 103.156 131.582 102.79 131.378C102.424 131.174 102.136 130.889 101.926 130.523C101.722 130.151 101.62 129.725 101.62 129.245C101.62 128.765 101.722 128.342 101.926 127.976C102.136 127.61 102.424 127.325 102.79 127.121C103.156 126.917 103.57 126.815 104.032 126.815C104.374 126.815 104.689 126.881 104.977 127.013C105.265 127.139 105.505 127.328 105.697 127.58V124.952H106.561ZM104.104 130.928C104.404 130.928 104.677 130.859 104.923 130.721C105.169 130.577 105.361 130.379 105.499 130.127C105.637 129.869 105.706 129.575 105.706 129.245C105.706 128.915 105.637 128.624 105.499 128.372C105.361 128.114 105.169 127.916 104.923 127.778C104.677 127.64 104.404 127.571 104.104 127.571C103.798 127.571 103.522 127.64 103.276 127.778C103.036 127.916 102.844 128.114 102.7 128.372C102.562 128.624 102.493 128.915 102.493 129.245C102.493 129.575 102.562 129.869 102.7 130.127C102.844 130.379 103.036 130.577 103.276 130.721C103.522 130.859 103.798 130.928 104.104 130.928Z" fill="#011627"/>
<path d="M133.614 126.113H131.454V125.33H136.665V126.113H134.505V131.63H133.614V126.113ZM140.067 126.815C140.673 126.815 141.153 126.992 141.507 127.346C141.867 127.694 142.047 128.207 142.047 128.885V131.63H141.183V128.984C141.183 128.522 141.072 128.174 140.85 127.94C140.628 127.706 140.31 127.589 139.896 127.589C139.428 127.589 139.059 127.727 138.789 128.003C138.519 128.273 138.384 128.663 138.384 129.173V131.63H137.52V124.952H138.384V127.535C138.564 127.307 138.798 127.13 139.086 127.004C139.38 126.878 139.707 126.815 140.067 126.815ZM148.092 126.86V131.63H147.273V130.91C147.099 131.156 146.868 131.348 146.58 131.486C146.298 131.618 145.989 131.684 145.653 131.684C145.017 131.684 144.516 131.51 144.15 131.162C143.784 130.808 143.601 130.289 143.601 129.605V126.86H144.465V129.506C144.465 129.968 144.576 130.319 144.798 130.559C145.02 130.793 145.338 130.91 145.752 130.91C146.208 130.91 146.568 130.772 146.832 130.496C147.096 130.22 147.228 129.83 147.228 129.326V126.86H148.092Z" fill="#011627"/>
<path d="M180.398 126.113V128.309H183.557V129.083H180.398V131.63H179.498V125.33H183.944V126.113H180.398ZM185.825 127.661C185.975 127.385 186.197 127.175 186.491 127.031C186.785 126.887 187.142 126.815 187.562 126.815V127.652C187.514 127.646 187.448 127.643 187.364 127.643C186.896 127.643 186.527 127.784 186.257 128.066C185.993 128.342 185.861 128.738 185.861 129.254V131.63H184.997V126.86H185.825V127.661ZM188.627 126.86H189.491V131.63H188.627V126.86ZM189.059 125.942C188.891 125.942 188.75 125.888 188.636 125.78C188.528 125.672 188.474 125.54 188.474 125.384C188.474 125.228 188.528 125.096 188.636 124.988C188.75 124.874 188.891 124.817 189.059 124.817C189.227 124.817 189.365 124.871 189.473 124.979C189.587 125.081 189.644 125.21 189.644 125.366C189.644 125.528 189.587 125.666 189.473 125.78C189.365 125.888 189.227 125.942 189.059 125.942Z" fill="#011627"/>
<path d="M221.635 131.702C221.161 131.702 220.702 131.63 220.258 131.486C219.82 131.336 219.475 131.144 219.223 130.91L219.556 130.208C219.796 130.424 220.102 130.601 220.474 130.739C220.852 130.871 221.239 130.937 221.635 130.937C222.157 130.937 222.547 130.85 222.805 130.676C223.063 130.496 223.192 130.259 223.192 129.965C223.192 129.749 223.12 129.575 222.976 129.443C222.838 129.305 222.664 129.2 222.454 129.128C222.25 129.056 221.959 128.975 221.581 128.885C221.107 128.771 220.723 128.657 220.429 128.543C220.141 128.429 219.892 128.255 219.682 128.021C219.478 127.781 219.376 127.46 219.376 127.058C219.376 126.722 219.463 126.419 219.637 126.149C219.817 125.879 220.087 125.663 220.447 125.501C220.807 125.339 221.254 125.258 221.788 125.258C222.16 125.258 222.526 125.306 222.886 125.402C223.246 125.498 223.555 125.636 223.813 125.816L223.516 126.536C223.252 126.368 222.97 126.242 222.67 126.158C222.37 126.068 222.076 126.023 221.788 126.023C221.278 126.023 220.894 126.116 220.636 126.302C220.384 126.488 220.258 126.728 220.258 127.022C220.258 127.238 220.33 127.415 220.474 127.553C220.618 127.685 220.795 127.79 221.005 127.868C221.221 127.94 221.512 128.018 221.878 128.102C222.352 128.216 222.733 128.33 223.021 128.444C223.309 128.558 223.555 128.732 223.759 128.966C223.969 129.2 224.074 129.515 224.074 129.911C224.074 130.241 223.984 130.544 223.804 130.82C223.624 131.09 223.351 131.306 222.985 131.468C222.619 131.624 222.169 131.702 221.635 131.702ZM227 126.815C227.66 126.815 228.164 126.977 228.512 127.301C228.866 127.625 229.043 128.108 229.043 128.75V131.63H228.224V131C228.08 131.222 227.873 131.393 227.603 131.513C227.339 131.627 227.024 131.684 226.658 131.684C226.124 131.684 225.695 131.555 225.371 131.297C225.053 131.039 224.894 130.7 224.894 130.28C224.894 129.86 225.047 129.524 225.353 129.272C225.659 129.014 226.145 128.885 226.811 128.885H228.179V128.714C228.179 128.342 228.071 128.057 227.855 127.859C227.639 127.661 227.321 127.562 226.901 127.562C226.619 127.562 226.343 127.61 226.073 127.706C225.803 127.796 225.575 127.919 225.389 128.075L225.029 127.427C225.275 127.229 225.569 127.079 225.911 126.977C226.253 126.869 226.616 126.815 227 126.815ZM226.802 131.018C227.132 131.018 227.417 130.946 227.657 130.802C227.897 130.652 228.071 130.442 228.179 130.172V129.506H226.847C226.115 129.506 225.749 129.752 225.749 130.244C225.749 130.484 225.842 130.673 226.028 130.811C226.214 130.949 226.472 131.018 226.802 131.018ZM233.324 131.351C233.198 131.459 233.042 131.543 232.856 131.603C232.67 131.657 232.478 131.684 232.28 131.684C231.8 131.684 231.428 131.555 231.164 131.297C230.9 131.039 230.768 130.67 230.768 130.19V127.571H229.958V126.86H230.768V125.816H231.632V126.86H233V127.571H231.632V130.154C231.632 130.412 231.695 130.61 231.821 130.748C231.953 130.886 232.139 130.955 232.379 130.955C232.643 130.955 232.868 130.88 233.054 130.73L233.324 131.351Z" fill="#011627"/>
<path d="M263.513 131.702C263.039 131.702 262.58 131.63 262.136 131.486C261.698 131.336 261.353 131.144 261.101 130.91L261.434 130.208C261.674 130.424 261.98 130.601 262.352 130.739C262.73 130.871 263.117 130.937 263.513 130.937C264.035 130.937 264.425 130.85 264.683 130.676C264.941 130.496 265.07 130.259 265.07 129.965C265.07 129.749 264.998 129.575 264.854 129.443C264.716 129.305 264.542 129.2 264.332 129.128C264.128 129.056 263.837 128.975 263.459 128.885C262.985 128.771 262.601 128.657 262.307 128.543C262.019 128.429 261.77 128.255 261.56 128.021C261.356 127.781 261.254 127.46 261.254 127.058C261.254 126.722 261.341 126.419 261.515 126.149C261.695 125.879 261.965 125.663 262.325 125.501C262.685 125.339 263.132 125.258 263.666 125.258C264.038 125.258 264.404 125.306 264.764 125.402C265.124 125.498 265.433 125.636 265.691 125.816L265.394 126.536C265.13 126.368 264.848 126.242 264.548 126.158C264.248 126.068 263.954 126.023 263.666 126.023C263.156 126.023 262.772 126.116 262.514 126.302C262.262 126.488 262.136 126.728 262.136 127.022C262.136 127.238 262.208 127.415 262.352 127.553C262.496 127.685 262.673 127.79 262.883 127.868C263.099 127.94 263.39 128.018 263.756 128.102C264.23 128.216 264.611 128.33 264.899 128.444C265.187 128.558 265.433 128.732 265.637 128.966C265.847 129.2 265.952 129.515 265.952 129.911C265.952 130.241 265.862 130.544 265.682 130.82C265.502 131.09 265.229 131.306 264.863 131.468C264.497 131.624 264.047 131.702 263.513 131.702ZM271.587 126.86V131.63H270.768V130.91C270.594 131.156 270.363 131.348 270.075 131.486C269.793 131.618 269.484 131.684 269.148 131.684C268.512 131.684 268.011 131.51 267.645 131.162C267.279 130.808 267.096 130.289 267.096 129.605V126.86H267.96V129.506C267.96 129.968 268.071 130.319 268.293 130.559C268.515 130.793 268.833 130.91 269.247 130.91C269.703 130.91 270.063 130.772 270.327 130.496C270.591 130.22 270.723 129.83 270.723 129.326V126.86H271.587ZM275.779 126.815C276.385 126.815 276.865 126.992 277.219 127.346C277.579 127.694 277.759 128.207 277.759 128.885V131.63H276.895V128.984C276.895 128.522 276.784 128.174 276.562 127.94C276.34 127.706 276.022 127.589 275.608 127.589C275.14 127.589 274.771 127.727 274.501 128.003C274.231 128.273 274.096 128.663 274.096 129.173V131.63H273.232V126.86H274.06V127.58C274.234 127.334 274.468 127.145 274.762 127.013C275.062 126.881 275.401 126.815 275.779 126.815Z" fill="#011627"/>
<path d="M12.4389 131.63L12.4299 127.04L10.1529 130.865H9.73895L7.46195 127.067V131.63H6.59795V125.33H7.33595L9.96395 129.758L12.5559 125.33H13.2939L13.3029 131.63H12.4389ZM17.1106 131.684C16.6366 131.684 16.2106 131.579 15.8326 131.369C15.4546 131.159 15.1576 130.871 14.9416 130.505C14.7316 130.133 14.6266 129.713 14.6266 129.245C14.6266 128.777 14.7316 128.36 14.9416 127.994C15.1576 127.622 15.4546 127.334 15.8326 127.13C16.2106 126.92 16.6366 126.815 17.1106 126.815C17.5846 126.815 18.0076 126.92 18.3796 127.13C18.7576 127.334 19.0516 127.622 19.2616 127.994C19.4777 128.36 19.5857 128.777 19.5857 129.245C19.5857 129.713 19.4777 130.133 19.2616 130.505C19.0516 130.871 18.7576 131.159 18.3796 131.369C18.0076 131.579 17.5846 131.684 17.1106 131.684ZM17.1106 130.928C17.4166 130.928 17.6896 130.859 17.9296 130.721C18.1756 130.577 18.3676 130.379 18.5056 130.127C18.6436 129.869 18.7126 129.575 18.7126 129.245C18.7126 128.915 18.6436 128.624 18.5056 128.372C18.3676 128.114 18.1756 127.916 17.9296 127.778C17.6896 127.64 17.4166 127.571 17.1106 127.571C16.8046 127.571 16.5286 127.64 16.2826 127.778C16.0426 127.916 15.8506 128.114 15.7066 128.372C15.5686 128.624 15.4996 128.915 15.4996 129.245C15.4996 129.575 15.5686 129.869 15.7066 130.127C15.8506 130.379 16.0426 130.577 16.2826 130.721C16.5286 130.859 16.8046 130.928 17.1106 130.928ZM23.3275 126.815C23.9335 126.815 24.4135 126.992 24.7675 127.346C25.1275 127.694 25.3075 128.207 25.3075 128.885V131.63H24.4435V128.984C24.4435 128.522 24.3325 128.174 24.1105 127.94C23.8885 127.706 23.5705 127.589 23.1565 127.589C22.6885 127.589 22.3195 127.727 22.0495 128.003C21.7795 128.273 21.6445 128.663 21.6445 129.173V131.63H20.7805V126.86H21.6085V127.58C21.7825 127.334 22.0165 127.145 22.3105 127.013C22.6105 126.881 22.9495 126.815 23.3275 126.815Z" fill="#011627"/>
<path d="M93.5943 4.2V14H92.6003V6.16L88.7503 12.754H88.2603L84.4103 6.202V14H83.4163V4.2H84.2703L88.5263 11.466L92.7403 4.2H93.5943ZM99.8374 14.07C99.1281 14.07 98.4887 13.9113 97.9194 13.594C97.3501 13.2673 96.9021 12.8193 96.5754 12.25C96.2487 11.6807 96.0854 11.0367 96.0854 10.318C96.0854 9.59933 96.2487 8.95533 96.5754 8.386C96.9021 7.81667 97.3501 7.37333 97.9194 7.056C98.4887 6.73867 99.1281 6.58 99.8374 6.58C100.547 6.58 101.186 6.73867 101.755 7.056C102.325 7.37333 102.768 7.81667 103.085 8.386C103.412 8.95533 103.575 9.59933 103.575 10.318C103.575 11.0367 103.412 11.6807 103.085 12.25C102.768 12.8193 102.325 13.2673 101.755 13.594C101.186 13.9113 100.547 14.07 99.8374 14.07ZM99.8374 13.188C100.36 13.188 100.827 13.0713 101.237 12.838C101.657 12.5953 101.984 12.2547 102.217 11.816C102.451 11.3773 102.567 10.878 102.567 10.318C102.567 9.758 102.451 9.25867 102.217 8.82C101.984 8.38133 101.657 8.04533 101.237 7.812C100.827 7.56933 100.36 7.448 99.8374 7.448C99.3147 7.448 98.8434 7.56933 98.4234 7.812C98.0127 8.04533 97.6861 8.38133 97.4434 8.82C97.2101 9.25867 97.0934 9.758 97.0934 10.318C97.0934 10.878 97.2101 11.3773 97.4434 11.816C97.6861 12.2547 98.0127 12.5953 98.4234 12.838C98.8434 13.0713 99.3147 13.188 99.8374 13.188ZM107.829 14.07C107.231 14.07 106.657 13.986 106.107 13.818C105.565 13.6407 105.141 13.4213 104.833 13.16L105.281 12.376C105.589 12.6187 105.976 12.8193 106.443 12.978C106.909 13.1273 107.395 13.202 107.899 13.202C108.571 13.202 109.065 13.0993 109.383 12.894C109.709 12.6793 109.873 12.3807 109.873 11.998C109.873 11.7273 109.784 11.5173 109.607 11.368C109.429 11.2093 109.205 11.0927 108.935 11.018C108.664 10.934 108.305 10.8547 107.857 10.78C107.259 10.668 106.779 10.556 106.415 10.444C106.051 10.3227 105.738 10.122 105.477 9.842C105.225 9.562 105.099 9.17467 105.099 8.68C105.099 8.064 105.355 7.56 105.869 7.168C106.382 6.776 107.096 6.58 108.011 6.58C108.487 6.58 108.963 6.64533 109.439 6.776C109.915 6.89733 110.307 7.06067 110.615 7.266L110.181 8.064C109.574 7.644 108.851 7.434 108.011 7.434C107.376 7.434 106.895 7.546 106.569 7.77C106.251 7.994 106.093 8.288 106.093 8.652C106.093 8.932 106.181 9.156 106.359 9.324C106.545 9.492 106.774 9.618 107.045 9.702C107.315 9.77667 107.689 9.856 108.165 9.94C108.753 10.052 109.224 10.164 109.579 10.276C109.933 10.388 110.237 10.5793 110.489 10.85C110.741 11.1207 110.867 11.494 110.867 11.97C110.867 12.614 110.596 13.1273 110.055 13.51C109.523 13.8833 108.781 14.07 107.829 14.07ZM116.832 13.552C116.646 13.72 116.412 13.8507 116.132 13.944C115.862 14.028 115.577 14.07 115.278 14.07C114.588 14.07 114.056 13.8833 113.682 13.51C113.309 13.1367 113.122 12.6093 113.122 11.928V7.476H111.806V6.636H113.122V5.026H114.116V6.636H116.356V7.476H114.116V11.872C114.116 12.3107 114.224 12.6467 114.438 12.88C114.662 13.104 114.98 13.216 115.39 13.216C115.596 13.216 115.792 13.1833 115.978 13.118C116.174 13.0527 116.342 12.9593 116.482 12.838L116.832 13.552ZM129.162 11.382H123.702L122.526 14H121.448L125.928 4.2H126.95L131.43 14H130.338L129.162 11.382ZM128.784 10.542L126.432 5.278L124.08 10.542H128.784ZM136.075 14.07C135.347 14.07 134.693 13.9113 134.115 13.594C133.545 13.2767 133.097 12.8333 132.771 12.264C132.444 11.6853 132.281 11.0367 132.281 10.318C132.281 9.59933 132.444 8.95533 132.771 8.386C133.097 7.81667 133.545 7.37333 134.115 7.056C134.693 6.73867 135.347 6.58 136.075 6.58C136.709 6.58 137.274 6.706 137.769 6.958C138.273 7.20067 138.669 7.56 138.959 8.036L138.217 8.54C137.974 8.176 137.666 7.90533 137.293 7.728C136.919 7.54133 136.513 7.448 136.075 7.448C135.543 7.448 135.062 7.56933 134.633 7.812C134.213 8.04533 133.881 8.38133 133.639 8.82C133.405 9.25867 133.289 9.758 133.289 10.318C133.289 10.8873 133.405 11.3913 133.639 11.83C133.881 12.2593 134.213 12.5953 134.633 12.838C135.062 13.0713 135.543 13.188 136.075 13.188C136.513 13.188 136.919 13.0993 137.293 12.922C137.666 12.7447 137.974 12.474 138.217 12.11L138.959 12.614C138.669 13.09 138.273 13.454 137.769 13.706C137.265 13.9487 136.7 14.07 136.075 14.07ZM145.121 13.552C144.935 13.72 144.701 13.8507 144.421 13.944C144.151 14.028 143.866 14.07 143.567 14.07C142.877 14.07 142.345 13.8833 141.971 13.51C141.598 13.1367 141.411 12.6093 141.411 11.928V7.476H140.095V6.636H141.411V5.026H142.405V6.636H144.645V7.476H142.405V11.872C142.405 12.3107 142.513 12.6467 142.727 12.88C142.951 13.104 143.269 13.216 143.679 13.216C143.885 13.216 144.081 13.1833 144.267 13.118C144.463 13.0527 144.631 12.9593 144.771 12.838L145.121 13.552ZM147.181 6.636H148.175V14H147.181V6.636ZM147.685 5.026C147.48 5.026 147.307 4.956 147.167 4.816C147.027 4.676 146.957 4.508 146.957 4.312C146.957 4.12533 147.027 3.962 147.167 3.822C147.307 3.682 147.48 3.612 147.685 3.612C147.89 3.612 148.063 3.682 148.203 3.822C148.343 3.95267 148.413 4.11133 148.413 4.298C148.413 4.50333 148.343 4.676 148.203 4.816C148.063 4.956 147.89 5.026 147.685 5.026ZM157.379 6.636L154.103 14H153.081L149.819 6.636H150.855L153.613 12.908L156.399 6.636H157.379ZM165.236 10.626H159.076C159.132 11.3913 159.426 12.012 159.958 12.488C160.49 12.9547 161.162 13.188 161.974 13.188C162.431 13.188 162.851 13.1087 163.234 12.95C163.616 12.782 163.948 12.5393 164.228 12.222L164.788 12.866C164.461 13.258 164.05 13.5567 163.556 13.762C163.07 13.9673 162.534 14.07 161.946 14.07C161.19 14.07 160.518 13.9113 159.93 13.594C159.351 13.2673 158.898 12.8193 158.572 12.25C158.245 11.6807 158.082 11.0367 158.082 10.318C158.082 9.59933 158.236 8.95533 158.544 8.386C158.861 7.81667 159.29 7.37333 159.832 7.056C160.382 6.73867 160.998 6.58 161.68 6.58C162.361 6.58 162.972 6.73867 163.514 7.056C164.055 7.37333 164.48 7.81667 164.788 8.386C165.096 8.946 165.25 9.59 165.25 10.318L165.236 10.626ZM161.68 7.434C160.97 7.434 160.373 7.66267 159.888 8.12C159.412 8.568 159.141 9.156 159.076 9.884H164.298C164.232 9.156 163.957 8.568 163.472 8.12C162.996 7.66267 162.398 7.434 161.68 7.434ZM171.647 4.2H175.637C176.673 4.2 177.587 4.41 178.381 4.83C179.174 5.24067 179.79 5.81933 180.229 6.566C180.667 7.30333 180.887 8.148 180.887 9.1C180.887 10.052 180.667 10.9013 180.229 11.648C179.79 12.3853 179.174 12.964 178.381 13.384C177.587 13.7947 176.673 14 175.637 14H171.647V4.2ZM175.581 13.104C176.439 13.104 177.191 12.936 177.835 12.6C178.479 12.2547 178.978 11.7833 179.333 11.186C179.687 10.5793 179.865 9.884 179.865 9.1C179.865 8.316 179.687 7.62533 179.333 7.028C178.978 6.42133 178.479 5.95 177.835 5.614C177.191 5.26867 176.439 5.096 175.581 5.096H172.683V13.104H175.581ZM185.829 6.58C186.791 6.58 187.528 6.82267 188.041 7.308C188.555 7.784 188.811 8.49333 188.811 9.436V14H187.859V12.852C187.635 13.2347 187.304 13.5333 186.865 13.748C186.436 13.9627 185.923 14.07 185.325 14.07C184.504 14.07 183.851 13.874 183.365 13.482C182.88 13.09 182.637 12.572 182.637 11.928C182.637 11.3027 182.861 10.7987 183.309 10.416C183.767 10.0333 184.49 9.842 185.479 9.842H187.817V9.394C187.817 8.75933 187.64 8.27867 187.285 7.952C186.931 7.616 186.413 7.448 185.731 7.448C185.265 7.448 184.817 7.52733 184.387 7.686C183.958 7.83533 183.589 8.04533 183.281 8.316L182.833 7.574C183.207 7.25667 183.655 7.014 184.177 6.846C184.7 6.66867 185.251 6.58 185.829 6.58ZM185.479 13.286C186.039 13.286 186.52 13.16 186.921 12.908C187.323 12.6467 187.621 12.2733 187.817 11.788V10.584H185.507C184.247 10.584 183.617 11.0227 183.617 11.9C183.617 12.3293 183.781 12.67 184.107 12.922C184.434 13.1647 184.891 13.286 185.479 13.286ZM197.812 6.636L194.13 14.882C193.832 15.5727 193.486 16.0627 193.094 16.352C192.702 16.6413 192.231 16.786 191.68 16.786C191.326 16.786 190.994 16.73 190.686 16.618C190.378 16.506 190.112 16.338 189.888 16.114L190.35 15.372C190.724 15.7453 191.172 15.932 191.694 15.932C192.03 15.932 192.315 15.8387 192.548 15.652C192.791 15.4653 193.015 15.148 193.22 14.7L193.542 13.986L190.252 6.636H191.288L194.06 12.894L196.832 6.636H197.812ZM201.354 14.07C200.757 14.07 200.183 13.986 199.632 13.818C199.091 13.6407 198.666 13.4213 198.358 13.16L198.806 12.376C199.114 12.6187 199.501 12.8193 199.968 12.978C200.435 13.1273 200.92 13.202 201.424 13.202C202.096 13.202 202.591 13.0993 202.908 12.894C203.235 12.6793 203.398 12.3807 203.398 11.998C203.398 11.7273 203.309 11.5173 203.132 11.368C202.955 11.2093 202.731 11.0927 202.46 11.018C202.189 10.934 201.83 10.8547 201.382 10.78C200.785 10.668 200.304 10.556 199.94 10.444C199.576 10.3227 199.263 10.122 199.002 9.842C198.75 9.562 198.624 9.17467 198.624 8.68C198.624 8.064 198.881 7.56 199.394 7.168C199.907 6.776 200.621 6.58 201.536 6.58C202.012 6.58 202.488 6.64533 202.964 6.776C203.44 6.89733 203.832 7.06067 204.14 7.266L203.706 8.064C203.099 7.644 202.376 7.434 201.536 7.434C200.901 7.434 200.421 7.546 200.094 7.77C199.777 7.994 199.618 8.288 199.618 8.652C199.618 8.932 199.707 9.156 199.884 9.324C200.071 9.492 200.299 9.618 200.57 9.702C200.841 9.77667 201.214 9.856 201.69 9.94C202.278 10.052 202.749 10.164 203.104 10.276C203.459 10.388 203.762 10.5793 204.014 10.85C204.266 11.1207 204.392 11.494 204.392 11.97C204.392 12.614 204.121 13.1273 203.58 13.51C203.048 13.8833 202.306 14.07 201.354 14.07Z" fill="black" fill-opacity="0.6"/>
</svg>
