<svg width="348" height="494" viewBox="0 0 348 494" fill="none" xmlns="http://www.w3.org/2000/svg">
<path fill-rule="evenodd" clip-rule="evenodd" d="M241 249C241 286.003 211.003 316 174 316C136.997 316 107 286.003 107 249C107 211.997 136.997 182 174 182C211.003 182 241 211.997 241 249ZM222 249C222 275.51 200.51 297 174 297C147.49 297 126 275.51 126 249C126 222.49 147.49 201 174 201C200.51 201 222 222.49 222 249Z" fill="#1F8EFA"/>
<mask id="mask0" mask-type="alpha" maskUnits="userSpaceOnUse" x="107" y="182" width="134" height="134">
<path fill-rule="evenodd" clip-rule="evenodd" d="M241 249C241 286.003 211.003 316 174 316C136.997 316 107 286.003 107 249C107 211.997 136.997 182 174 182C211.003 182 241 211.997 241 249ZM222 249C222 275.51 200.51 297 174 297C147.49 297 126 275.51 126 249C126 222.49 147.49 201 174 201C200.51 201 222 222.49 222 249Z" fill="white"/>
</mask>
<g mask="url(#mask0)">
<rect x="174" y="167" width="88" height="87" fill="#D8D8D8"/>
<rect x="174" y="167" width="88" height="87" fill="#FFAB4F"/>
<path fill-rule="evenodd" clip-rule="evenodd" d="M262.465 250.234L254.223 263.551L242.938 298.633L174 254L262.465 250.234Z" fill="#EE423D"/>
<path fill-rule="evenodd" clip-rule="evenodd" d="M243.109 298.251L234.866 311.568L185.799 320.318L174 254L243.109 298.251Z" fill="#843FA0"/>
<path fill-rule="evenodd" clip-rule="evenodd" d="M111.863 199.006L143.749 163.961L175.578 166.031L174 254L111.863 199.006Z" fill="#05C985"/>
</g>
<path d="M163.535 252.336C162.826 252.336 162.182 252.261 161.603 252.112C161.024 251.963 160.502 251.767 160.035 251.524C159.587 251.281 159.176 251.011 158.803 250.712C158.448 250.413 158.131 250.115 157.851 249.816L158.579 248.948C158.84 249.247 159.13 249.536 159.447 249.816C159.764 250.077 160.119 250.32 160.511 250.544C160.922 250.749 161.37 250.917 161.855 251.048C162.359 251.179 162.919 251.244 163.535 251.244C164.132 251.244 164.683 251.151 165.187 250.964C165.71 250.777 166.158 250.516 166.531 250.18C166.904 249.825 167.194 249.405 167.399 248.92C167.604 248.435 167.707 247.893 167.707 247.296C167.707 246.68 167.586 246.12 167.343 245.616C167.119 245.112 166.755 244.683 166.251 244.328C165.766 243.955 165.122 243.665 164.319 243.46C163.535 243.255 162.583 243.152 161.463 243.152V242.06C162.49 242.06 163.358 241.957 164.067 241.752C164.795 241.547 165.374 241.276 165.803 240.94C166.251 240.585 166.568 240.175 166.755 239.708C166.96 239.223 167.063 238.709 167.063 238.168C167.063 237.16 166.736 236.357 166.083 235.76C165.43 235.144 164.552 234.836 163.451 234.836C162.611 234.836 161.846 235.032 161.155 235.424C160.464 235.797 159.858 236.255 159.335 236.796L158.607 235.956C159.223 235.359 159.923 234.845 160.707 234.416C161.491 233.987 162.406 233.772 163.451 233.772C164.142 233.772 164.786 233.875 165.383 234.08C165.98 234.267 166.494 234.547 166.923 234.92C167.371 235.275 167.716 235.723 167.959 236.264C168.22 236.787 168.351 237.393 168.351 238.084C168.351 239.26 168.024 240.212 167.371 240.94C166.736 241.649 165.924 242.172 164.935 242.508V242.62C165.495 242.732 166.018 242.928 166.503 243.208C166.988 243.469 167.418 243.796 167.791 244.188C168.164 244.58 168.454 245.037 168.659 245.56C168.883 246.064 168.995 246.633 168.995 247.268C168.995 248.052 168.855 248.761 168.575 249.396C168.295 250.012 167.903 250.544 167.399 250.992C166.914 251.421 166.335 251.757 165.663 252C165.01 252.224 164.3 252.336 163.535 252.336ZM173.518 252.336C173.2 252.336 172.92 252.224 172.678 252C172.435 251.776 172.314 251.468 172.314 251.076C172.314 250.665 172.435 250.348 172.678 250.124C172.92 249.9 173.2 249.788 173.518 249.788C173.835 249.788 174.106 249.9 174.33 250.124C174.572 250.348 174.694 250.665 174.694 251.076C174.694 251.468 174.572 251.776 174.33 252C174.106 252.224 173.835 252.336 173.518 252.336ZM177.711 252V251.216C179.185 249.723 180.473 248.388 181.575 247.212C182.676 246.017 183.591 244.935 184.319 243.964C185.065 242.975 185.616 242.069 185.971 241.248C186.344 240.408 186.531 239.596 186.531 238.812C186.531 237.692 186.213 236.749 185.579 235.984C184.963 235.219 183.983 234.836 182.639 234.836C181.817 234.836 181.052 235.06 180.343 235.508C179.633 235.956 179.008 236.516 178.467 237.188L177.655 236.404C178.327 235.657 179.064 235.032 179.867 234.528C180.688 234.024 181.649 233.772 182.751 233.772C184.356 233.772 185.597 234.229 186.475 235.144C187.352 236.059 187.791 237.272 187.791 238.784C187.791 239.68 187.595 240.576 187.203 241.472C186.811 242.349 186.26 243.283 185.551 244.272C184.841 245.243 183.973 246.288 182.947 247.408C181.939 248.509 180.819 249.713 179.587 251.02C180.072 250.983 180.567 250.955 181.071 250.936C181.593 250.899 182.097 250.88 182.583 250.88H188.687V252H177.711Z" fill="#011627"/>
<path d="M160.399 263H161.139V269.36H165.059V270H160.399V263ZM171.781 266.5H172.491V269.17C172.164 269.457 171.777 269.677 171.331 269.83C170.884 269.983 170.414 270.06 169.921 270.06C169.221 270.06 168.591 269.907 168.031 269.6C167.471 269.293 167.031 268.87 166.711 268.33C166.391 267.783 166.231 267.173 166.231 266.5C166.231 265.827 166.391 265.22 166.711 264.68C167.031 264.133 167.471 263.707 168.031 263.4C168.591 263.093 169.224 262.94 169.931 262.94C170.464 262.94 170.954 263.027 171.401 263.2C171.847 263.367 172.224 263.617 172.531 263.95L172.071 264.42C171.517 263.873 170.814 263.6 169.961 263.6C169.394 263.6 168.881 263.727 168.421 263.98C167.967 264.227 167.611 264.573 167.351 265.02C167.091 265.46 166.961 265.953 166.961 266.5C166.961 267.047 167.091 267.54 167.351 267.98C167.611 268.42 167.967 268.767 168.421 269.02C168.874 269.273 169.384 269.4 169.951 269.4C170.671 269.4 171.281 269.22 171.781 268.86V266.5ZM177.905 263C178.798 263 179.498 263.213 180.005 263.64C180.512 264.067 180.765 264.653 180.765 265.4C180.765 266.147 180.512 266.733 180.005 267.16C179.498 267.58 178.798 267.79 177.905 267.79H176.025V270H175.285V263H177.905ZM177.885 267.14C178.578 267.14 179.108 266.99 179.475 266.69C179.842 266.383 180.025 265.953 180.025 265.4C180.025 264.833 179.842 264.4 179.475 264.1C179.108 263.793 178.578 263.64 177.885 263.64H176.025V267.14H177.885ZM187.103 268.13H183.203L182.363 270H181.593L184.793 263H185.523L188.723 270H187.943L187.103 268.13ZM186.833 267.53L185.153 263.77L183.473 267.53H186.833Z" fill="#011627"/>
<path d="M68.4445 144.786H66.4493V150.288H65.3463V144.786H63.3688V143.89H68.4445V144.786ZM71.7755 149.823C71.462 150.192 71.0167 150.376 70.4396 150.376C69.924 150.376 69.5328 150.225 69.2662 149.924C69.0026 149.622 68.8707 149.185 68.8707 148.614V145.534H69.9386V148.601C69.9386 149.204 70.1891 149.506 70.6901 149.506C71.2086 149.506 71.5587 149.32 71.7404 148.948V145.534H72.8082V150.288H71.8019L71.7755 149.823ZM75.9899 150.376C75.3131 150.376 74.7638 150.164 74.3419 149.739C73.923 149.311 73.7135 148.743 73.7135 148.034V147.902C73.7135 147.428 73.8043 147.004 73.986 146.632C74.1705 146.257 74.4283 145.966 74.7594 145.758C75.0905 145.55 75.4596 145.446 75.8668 145.446C76.5143 145.446 77.0138 145.652 77.3654 146.065C77.7199 146.478 77.8971 147.063 77.8971 147.819V148.249H74.7902C74.8224 148.642 74.9528 148.953 75.1813 149.181C75.4127 149.41 75.7028 149.524 76.0514 149.524C76.5407 149.524 76.9391 149.326 77.2467 148.931L77.8224 149.48C77.632 149.764 77.3771 149.985 77.0577 150.143C76.7413 150.299 76.3854 150.376 75.9899 150.376ZM75.8624 146.303C75.5695 146.303 75.3322 146.405 75.1505 146.61C74.9718 146.815 74.8575 147.101 74.8077 147.467H76.8424V147.388C76.819 147.031 76.7238 146.761 76.5568 146.579C76.3898 146.395 76.1583 146.303 75.8624 146.303Z" fill="#011627"/>
<path d="M115.774 148.706L116.759 143.89H117.862L116.385 150.288H115.322L114.104 145.617L112.861 150.288H111.793L110.316 143.89H111.419L112.413 148.698L113.634 143.89H114.566L115.774 148.706ZM120.525 150.376C119.848 150.376 119.299 150.164 118.877 149.739C118.458 149.311 118.248 148.743 118.248 148.034V147.902C118.248 147.428 118.339 147.004 118.521 146.632C118.706 146.257 118.963 145.966 119.294 145.758C119.625 145.55 119.995 145.446 120.402 145.446C121.049 145.446 121.549 145.652 121.9 146.065C122.255 146.478 122.432 147.063 122.432 147.819V148.249H119.325C119.357 148.642 119.488 148.953 119.716 149.181C119.948 149.41 120.238 149.524 120.586 149.524C121.076 149.524 121.474 149.326 121.782 148.931L122.357 149.48C122.167 149.764 121.912 149.985 121.593 150.143C121.276 150.299 120.92 150.376 120.525 150.376ZM120.397 146.303C120.104 146.303 119.867 146.405 119.685 146.61C119.507 146.815 119.393 147.101 119.343 147.467H121.377V147.388C121.354 147.031 121.259 146.761 121.092 146.579C120.925 146.395 120.693 146.303 120.397 146.303ZM123.065 147.876C123.065 147.143 123.235 146.556 123.575 146.114C123.914 145.668 124.37 145.446 124.941 145.446C125.445 145.446 125.852 145.621 126.163 145.973V143.538H127.231V150.288H126.264L126.211 149.796C125.892 150.183 125.466 150.376 124.933 150.376C124.376 150.376 123.925 150.152 123.579 149.704C123.236 149.256 123.065 148.646 123.065 147.876ZM124.133 147.968C124.133 148.452 124.225 148.829 124.41 149.102C124.597 149.371 124.862 149.506 125.205 149.506C125.642 149.506 125.961 149.311 126.163 148.922V146.891C125.967 146.511 125.65 146.32 125.214 146.32C124.868 146.32 124.601 146.458 124.414 146.733C124.226 147.006 124.133 147.417 124.133 147.968Z" fill="#011627"/>
<path d="M169.901 144.786H167.906V150.288H166.803V144.786H164.825V143.89H169.901V144.786ZM171.694 146.052C172.043 145.648 172.484 145.446 173.017 145.446C174.03 145.446 174.545 146.024 174.559 147.182V150.288H173.491V147.221C173.491 146.893 173.42 146.661 173.276 146.527C173.135 146.389 172.927 146.32 172.652 146.32C172.224 146.32 171.905 146.511 171.694 146.891V150.288H170.626V143.538H171.694V146.052ZM178.523 149.823C178.21 150.192 177.764 150.376 177.187 150.376C176.672 150.376 176.28 150.225 176.014 149.924C175.75 149.622 175.618 149.185 175.618 148.614V145.534H176.686V148.601C176.686 149.204 176.937 149.506 177.438 149.506C177.956 149.506 178.306 149.32 178.488 148.948V145.534H179.556V150.288H178.549L178.523 149.823Z" fill="#011627"/>
<path d="M225.987 147.577H223.411V150.288H222.3V143.89H226.365V144.786H223.411V146.689H225.987V147.577ZM229.52 146.509C229.379 146.486 229.234 146.474 229.085 146.474C228.595 146.474 228.266 146.661 228.096 147.036V150.288H227.028V145.534H228.048L228.074 146.065C228.332 145.652 228.689 145.446 229.146 145.446C229.299 145.446 229.425 145.466 229.524 145.507L229.52 146.509ZM231.33 150.288H230.262V145.534H231.33V150.288ZM230.197 144.299C230.197 144.135 230.248 143.998 230.35 143.89C230.456 143.782 230.605 143.727 230.799 143.727C230.992 143.727 231.141 143.782 231.247 143.89C231.352 143.998 231.405 144.135 231.405 144.299C231.405 144.46 231.352 144.595 231.247 144.703C231.141 144.808 230.992 144.861 230.799 144.861C230.605 144.861 230.456 144.808 230.35 144.703C230.248 144.595 230.197 144.46 230.197 144.299Z" fill="#011627"/>
<path d="M275.501 148.641C275.501 148.359 275.402 148.142 275.202 147.99C275.006 147.838 274.65 147.684 274.135 147.529C273.619 147.373 273.209 147.201 272.904 147.01C272.321 146.644 272.03 146.166 272.03 145.578C272.03 145.062 272.239 144.637 272.658 144.303C273.08 143.969 273.626 143.802 274.297 143.802C274.743 143.802 275.139 143.884 275.488 144.048C275.837 144.212 276.111 144.447 276.31 144.751C276.509 145.053 276.609 145.389 276.609 145.758H275.501C275.501 145.424 275.396 145.163 275.185 144.975C274.977 144.785 274.678 144.69 274.288 144.69C273.925 144.69 273.642 144.767 273.44 144.923C273.241 145.078 273.141 145.295 273.141 145.573C273.141 145.807 273.25 146.004 273.467 146.162C273.683 146.317 274.041 146.47 274.539 146.619C275.037 146.766 275.437 146.934 275.739 147.124C276.04 147.312 276.262 147.529 276.402 147.775C276.543 148.018 276.613 148.304 276.613 148.632C276.613 149.165 276.408 149.59 275.998 149.906C275.591 150.22 275.037 150.376 274.337 150.376C273.874 150.376 273.448 150.291 273.058 150.121C272.671 149.949 272.369 149.711 272.153 149.41C271.939 149.108 271.832 148.756 271.832 148.355H272.944C272.944 148.718 273.064 148.999 273.304 149.199C273.544 149.398 273.889 149.497 274.337 149.497C274.723 149.497 275.014 149.42 275.207 149.265C275.403 149.106 275.501 148.898 275.501 148.641ZM280.326 150.288C280.28 150.198 280.239 150.05 280.203 149.845C279.864 150.199 279.448 150.376 278.955 150.376C278.478 150.376 278.088 150.24 277.786 149.968C277.485 149.695 277.334 149.358 277.334 148.957C277.334 148.45 277.521 148.062 277.896 147.792C278.274 147.52 278.813 147.384 279.514 147.384H280.168V147.072C280.168 146.826 280.099 146.629 279.962 146.483C279.824 146.333 279.615 146.259 279.333 146.259C279.09 146.259 278.891 146.32 278.736 146.443C278.58 146.563 278.503 146.717 278.503 146.905H277.435C277.435 146.644 277.521 146.401 277.694 146.175C277.867 145.947 278.101 145.768 278.397 145.639C278.696 145.51 279.029 145.446 279.395 145.446C279.951 145.446 280.395 145.586 280.726 145.868C281.057 146.146 281.227 146.538 281.236 147.045V149.19C281.236 149.618 281.296 149.959 281.416 150.214V150.288H280.326ZM279.153 149.519C279.364 149.519 279.562 149.468 279.746 149.366C279.934 149.263 280.075 149.125 280.168 148.953V148.056H279.593C279.197 148.056 278.9 148.125 278.701 148.263C278.501 148.4 278.402 148.595 278.402 148.847C278.402 149.052 278.469 149.216 278.604 149.339C278.742 149.459 278.925 149.519 279.153 149.519ZM283.693 144.378V145.534H284.532V146.325H283.693V148.979C283.693 149.161 283.728 149.292 283.798 149.374C283.871 149.453 284 149.493 284.185 149.493C284.308 149.493 284.432 149.478 284.558 149.449V150.275C284.315 150.343 284.081 150.376 283.855 150.376C283.035 150.376 282.625 149.924 282.625 149.018V146.325H281.843V145.534H282.625V144.378H283.693Z" fill="#011627"/>
<path d="M327.839 148.641C327.839 148.359 327.74 148.142 327.541 147.99C327.344 147.838 326.988 147.684 326.473 147.529C325.957 147.373 325.547 147.201 325.242 147.01C324.659 146.644 324.368 146.166 324.368 145.578C324.368 145.062 324.577 144.637 324.996 144.303C325.418 143.969 325.964 143.802 326.635 143.802C327.081 143.802 327.478 143.884 327.826 144.048C328.175 144.212 328.449 144.447 328.648 144.751C328.847 145.053 328.947 145.389 328.947 145.758H327.839C327.839 145.424 327.734 145.163 327.523 144.975C327.315 144.785 327.016 144.69 326.627 144.69C326.263 144.69 325.981 144.767 325.778 144.923C325.579 145.078 325.48 145.295 325.48 145.573C325.48 145.807 325.588 146.004 325.805 146.162C326.022 146.317 326.379 146.47 326.877 146.619C327.375 146.766 327.775 146.934 328.077 147.124C328.379 147.312 328.6 147.529 328.74 147.775C328.881 148.018 328.951 148.304 328.951 148.632C328.951 149.165 328.746 149.59 328.336 149.906C327.929 150.22 327.375 150.376 326.675 150.376C326.212 150.376 325.786 150.291 325.396 150.121C325.009 149.949 324.708 149.711 324.491 149.41C324.277 149.108 324.17 148.756 324.17 148.355H325.282C325.282 148.718 325.402 148.999 325.642 149.199C325.882 149.398 326.227 149.497 326.675 149.497C327.062 149.497 327.352 149.42 327.545 149.265C327.741 149.106 327.839 148.898 327.839 148.641ZM332.704 149.823C332.391 150.192 331.945 150.376 331.368 150.376C330.853 150.376 330.462 150.225 330.195 149.924C329.931 149.622 329.799 149.185 329.799 148.614V145.534H330.867V148.601C330.867 149.204 331.118 149.506 331.619 149.506C332.137 149.506 332.487 149.32 332.669 148.948V145.534H333.737V150.288H332.731L332.704 149.823ZM335.816 145.534L335.846 146.083C336.198 145.658 336.659 145.446 337.231 145.446C338.221 145.446 338.725 146.013 338.742 147.146V150.288H337.674V147.208C337.674 146.906 337.609 146.683 337.477 146.54C337.348 146.393 337.135 146.32 336.839 146.32C336.409 146.32 336.088 146.515 335.877 146.905V150.288H334.809V145.534H335.816Z" fill="#011627"/>
<path d="M12.5983 143.89L14.444 148.794L16.2854 143.89H17.7224V150.288H16.6149V148.179L16.7248 145.358L14.8352 150.288H14.0398L12.1545 145.362L12.2644 148.179V150.288H11.1569V143.89H12.5983ZM18.7375 147.867C18.7375 147.401 18.8298 146.982 19.0144 146.61C19.1989 146.235 19.4582 145.948 19.7922 145.749C20.1262 145.547 20.51 145.446 20.9436 145.446C21.5852 145.446 22.1052 145.652 22.5036 146.065C22.905 146.478 23.1218 147.026 23.154 147.709L23.1584 147.959C23.1584 148.428 23.0676 148.847 22.8859 149.216C22.7072 149.585 22.4494 149.871 22.1125 150.073C21.7785 150.275 21.3918 150.376 20.9523 150.376C20.2815 150.376 19.7439 150.154 19.3396 149.708C18.9382 149.26 18.7375 148.664 18.7375 147.92V147.867ZM19.8054 147.959C19.8054 148.449 19.9065 148.832 20.1086 149.111C20.3107 149.386 20.592 149.524 20.9523 149.524C21.3127 149.524 21.5925 149.383 21.7917 149.102C21.9939 148.821 22.0949 148.409 22.0949 147.867C22.0949 147.387 21.9909 147.006 21.7829 146.724C21.5778 146.443 21.2981 146.303 20.9436 146.303C20.5949 146.303 20.3181 146.442 20.113 146.72C19.9079 146.995 19.8054 147.409 19.8054 147.959ZM25.0524 145.534L25.0832 146.083C25.4348 145.658 25.8962 145.446 26.4675 145.446C27.4577 145.446 27.9616 146.013 27.9792 147.146V150.288H26.9113V147.208C26.9113 146.906 26.8454 146.683 26.7136 146.54C26.5847 146.393 26.3723 146.32 26.0764 146.32C25.6457 146.32 25.3249 146.515 25.114 146.905V150.288H24.0461V145.534H25.0524Z" fill="#011627"/>
<path fill-rule="evenodd" clip-rule="evenodd" d="M69.3242 33.4231C66.0105 33.4231 63.3242 36.1094 63.3242 39.4231V117.423C63.3242 120.737 66.0105 123.423 69.3242 123.423C72.6379 123.423 75.3242 120.737 75.3242 117.423V39.4231C75.3242 36.1094 72.6379 33.4231 69.3242 33.4231ZM73.3242 132.426C73.3242 134.636 71.5334 136.428 69.3242 136.428C67.1151 136.428 65.3242 134.636 65.3242 132.426C65.3242 130.215 67.1151 128.423 69.3242 128.423C71.5334 128.423 73.3242 130.215 73.3242 132.426Z" fill="#2EC4B6"/>
<mask id="mask1" mask-type="alpha" maskUnits="userSpaceOnUse" x="63" y="33" width="13" height="104">
<path fill-rule="evenodd" clip-rule="evenodd" d="M69.3242 33.4231C66.0105 33.4231 63.3242 36.1094 63.3242 39.4231V117.423C63.3242 120.737 66.0105 123.423 69.3242 123.423C72.6379 123.423 75.3242 120.737 75.3242 117.423V39.4231C75.3242 36.1094 72.6379 33.4231 69.3242 33.4231ZM73.3242 132.426C73.3242 134.636 71.5334 136.428 69.3242 136.428C67.1151 136.428 65.3242 134.636 65.3242 132.426C65.3242 130.215 67.1151 128.423 69.3242 128.423C71.5334 128.423 73.3242 130.215 73.3242 132.426Z" fill="white"/>
</mask>
<g mask="url(#mask1)">
<rect x="63.3242" y="33.4231" width="12" height="103" fill="#2EC4B6"/>
</g>
<path fill-rule="evenodd" clip-rule="evenodd" d="M330.589 89.7727C327.276 89.7727 324.589 92.459 324.589 95.7727V118.773C324.589 122.086 327.276 124.773 330.589 124.773C333.903 124.773 336.589 122.086 336.589 118.773V95.7727C336.589 92.459 333.903 89.7727 330.589 89.7727ZM334.589 133.775C334.589 135.986 332.798 137.778 330.589 137.778C328.38 137.778 326.589 135.986 326.589 133.775C326.589 131.565 328.38 129.773 330.589 129.773C332.798 129.773 334.589 131.565 334.589 133.775Z" fill="#2EC4B6"/>
<mask id="mask2" mask-type="alpha" maskUnits="userSpaceOnUse" x="324" y="89" width="13" height="49">
<path fill-rule="evenodd" clip-rule="evenodd" d="M330.589 89.7727C327.276 89.7727 324.589 92.459 324.589 95.7727V118.773C324.589 122.086 327.276 124.773 330.589 124.773C333.903 124.773 336.589 122.086 336.589 118.773V95.7727C336.589 92.459 333.903 89.7727 330.589 89.7727ZM334.589 133.775C334.589 135.986 332.798 137.778 330.589 137.778C328.38 137.778 326.589 135.986 326.589 133.775C326.589 131.565 328.38 129.773 330.589 129.773C332.798 129.773 334.589 131.565 334.589 133.775Z" fill="white"/>
</mask>
<g mask="url(#mask2)">
<rect x="324.589" y="89.7727" width="12" height="48" fill="#2EC4B6"/>
</g>
<path fill-rule="evenodd" clip-rule="evenodd" d="M276.803 63.8077C273.489 63.8077 270.803 66.494 270.803 69.8077V118.808C270.803 122.121 273.489 124.808 276.803 124.808C280.117 124.808 282.803 122.121 282.803 118.808V69.8077C282.803 66.494 280.117 63.8077 276.803 63.8077ZM280.803 133.81C280.803 136.021 279.012 137.813 276.803 137.813C274.594 137.813 272.803 136.021 272.803 133.81C272.803 131.6 274.594 129.808 276.803 129.808C279.012 129.808 280.803 131.6 280.803 133.81Z" fill="#2EC4B6"/>
<mask id="mask3" mask-type="alpha" maskUnits="userSpaceOnUse" x="270" y="63" width="13" height="75">
<path fill-rule="evenodd" clip-rule="evenodd" d="M276.803 63.8077C273.489 63.8077 270.803 66.494 270.803 69.8077V118.808C270.803 122.121 273.489 124.808 276.803 124.808C280.117 124.808 282.803 122.121 282.803 118.808V69.8077C282.803 66.494 280.117 63.8077 276.803 63.8077ZM280.803 133.81C280.803 136.021 279.012 137.813 276.803 137.813C274.594 137.813 272.803 136.021 272.803 133.81C272.803 131.6 274.594 129.808 276.803 129.808C279.012 129.808 280.803 131.6 280.803 133.81Z" fill="white"/>
</mask>
<g mask="url(#mask3)">
<rect x="270.803" y="63.8077" width="12" height="74" fill="#2EC4B6"/>
</g>
<path fill-rule="evenodd" clip-rule="evenodd" d="M225.447 36.4615C222.133 36.4615 219.447 39.1478 219.447 42.4615V118.462C219.447 121.775 222.133 124.462 225.447 124.462C228.76 124.462 231.447 121.775 231.447 118.462V42.4615C231.447 39.1478 228.76 36.4615 225.447 36.4615ZM229.447 133.464C229.447 135.675 227.656 137.467 225.447 137.467C223.238 137.467 221.447 135.675 221.447 133.464C221.447 131.254 223.238 129.462 225.447 129.462C227.656 129.462 229.447 131.254 229.447 133.464Z" fill="#2EC4B6"/>
<mask id="mask4" mask-type="alpha" maskUnits="userSpaceOnUse" x="219" y="36" width="13" height="102">
<path fill-rule="evenodd" clip-rule="evenodd" d="M225.447 36.4615C222.133 36.4615 219.447 39.1478 219.447 42.4615V118.462C219.447 121.775 222.133 124.462 225.447 124.462C228.76 124.462 231.447 121.775 231.447 118.462V42.4615C231.447 39.1478 228.76 36.4615 225.447 36.4615ZM229.447 133.464C229.447 135.675 227.656 137.467 225.447 137.467C223.238 137.467 221.447 135.675 221.447 133.464C221.447 131.254 223.238 129.462 225.447 129.462C227.656 129.462 229.447 131.254 229.447 133.464Z" fill="white"/>
</mask>
<g mask="url(#mask4)">
<rect x="219.447" y="36.4615" width="12" height="101" fill="#2EC4B6"/>
</g>
<path fill-rule="evenodd" clip-rule="evenodd" d="M174.091 45.5769C170.777 45.5769 168.091 48.2632 168.091 51.5769V117.577C168.091 120.891 170.777 123.577 174.091 123.577C177.404 123.577 180.091 120.891 180.091 117.577V51.5769C180.091 48.2632 177.404 45.5769 174.091 45.5769ZM178.091 132.58C178.091 134.79 176.3 136.582 174.091 136.582C171.881 136.582 170.091 134.79 170.091 132.58C170.091 130.369 171.881 128.577 174.091 128.577C176.3 128.577 178.091 130.369 178.091 132.58Z" fill="#1F8EFA"/>
<mask id="mask5" mask-type="alpha" maskUnits="userSpaceOnUse" x="168" y="45" width="13" height="92">
<path fill-rule="evenodd" clip-rule="evenodd" d="M174.091 45.5769C170.777 45.5769 168.091 48.2632 168.091 51.5769V117.577C168.091 120.891 170.777 123.577 174.091 123.577C177.404 123.577 180.091 120.891 180.091 117.577V51.5769C180.091 48.2632 177.404 45.5769 174.091 45.5769ZM178.091 132.58C178.091 134.79 176.3 136.582 174.091 136.582C171.881 136.582 170.091 134.79 170.091 132.58C170.091 130.369 171.881 128.577 174.091 128.577C176.3 128.577 178.091 130.369 178.091 132.58Z" fill="white"/>
</mask>
<g mask="url(#mask5)">
<rect x="168.091" y="45.5769" width="12" height="91" fill="#011627"/>
</g>
<path fill-rule="evenodd" clip-rule="evenodd" d="M17.968 75.9615C14.6543 75.9615 11.968 78.6478 11.968 81.9615V117.962C11.968 121.275 14.6543 123.962 17.968 123.962C21.2817 123.962 23.968 121.275 23.968 117.962V81.9615C23.968 78.6478 21.2817 75.9615 17.968 75.9615ZM21.968 132.964C21.968 135.175 20.1772 136.967 17.968 136.967C15.7589 136.967 13.968 135.175 13.968 132.964C13.968 130.754 15.7589 128.962 17.968 128.962C20.1772 128.962 21.968 130.754 21.968 132.964Z" fill="#1F8EFA"/>
<mask id="mask6" mask-type="alpha" maskUnits="userSpaceOnUse" x="11" y="75" width="13" height="62">
<path fill-rule="evenodd" clip-rule="evenodd" d="M17.968 75.9615C14.6543 75.9615 11.968 78.6478 11.968 81.9615V117.962C11.968 121.275 14.6543 123.962 17.968 123.962C21.2817 123.962 23.968 121.275 23.968 117.962V81.9615C23.968 78.6478 21.2817 75.9615 17.968 75.9615ZM21.968 132.964C21.968 135.175 20.1772 136.967 17.968 136.967C15.7589 136.967 13.968 135.175 13.968 132.964C13.968 130.754 15.7589 128.962 17.968 128.962C20.1772 128.962 21.968 130.754 21.968 132.964Z" fill="white"/>
</mask>
<g mask="url(#mask6)">
<rect x="11.968" y="75.9615" width="12" height="61" fill="#011627"/>
</g>
<path fill-rule="evenodd" clip-rule="evenodd" d="M119.324 0C116.011 0 113.324 2.68629 113.324 6V118C113.324 121.314 116.011 124 119.324 124C122.638 124 125.324 121.314 125.324 118V6C125.324 2.68629 122.638 0 119.324 0ZM123.324 133.003C123.324 135.213 121.533 137.005 119.324 137.005C117.115 137.005 115.324 135.213 115.324 133.003C115.324 130.792 117.115 129 119.324 129C121.533 129 123.324 130.792 123.324 133.003Z" fill="#2EC4B6"/>
<mask id="mask7" mask-type="alpha" maskUnits="userSpaceOnUse" x="113" y="0" width="13" height="138">
<path fill-rule="evenodd" clip-rule="evenodd" d="M119.324 0C116.011 0 113.324 2.68629 113.324 6V118C113.324 121.314 116.011 124 119.324 124C122.638 124 125.324 121.314 125.324 118V6C125.324 2.68629 122.638 0 119.324 0ZM123.324 133.003C123.324 135.213 121.533 137.005 119.324 137.005C117.115 137.005 115.324 135.213 115.324 133.003C115.324 130.792 117.115 129 119.324 129C121.533 129 123.324 130.792 123.324 133.003Z" fill="white"/>
</mask>
<g mask="url(#mask7)">
<rect x="113.324" width="12" height="137" fill="#2EC4B6"/>
</g>
<rect x="317.011" y="456.949" width="28.4954" height="5.29182" rx="2.64591" fill="#FF9F1C"/>
<rect x="317.011" y="446.366" width="28.4954" height="5.29183" rx="2.64592" fill="#FF9F1C"/>
<rect x="317.011" y="435.782" width="28.4954" height="5.29183" rx="2.64592" fill="#011627"/>
<rect x="317.011" y="425.198" width="28.4954" height="5.29183" rx="2.64592" fill="#011627"/>
<rect x="317.011" y="414.615" width="28.4954" height="5.29182" rx="2.64591" fill="#011627"/>
<rect x="317.011" y="404.031" width="28.4954" height="5.29182" rx="2.64591" fill="#011627"/>
<rect x="317.011" y="393.448" width="28.4954" height="5.29183" rx="2.64591" fill="#011627"/>
<rect x="317.011" y="382.864" width="28.4954" height="5.29183" rx="2.64591" fill="#011627"/>
<rect x="317.011" y="372.28" width="28.4954" height="5.29183" rx="2.64591" fill="#011627"/>
<path d="M322.696 474.798H323.51C324.022 474.791 324.424 474.656 324.717 474.394C325.01 474.132 325.157 473.779 325.157 473.334C325.157 472.334 324.659 471.834 323.663 471.834C323.194 471.834 322.819 471.968 322.538 472.238C322.26 472.504 322.122 472.857 322.122 473.298H321.038C321.038 472.623 321.284 472.062 321.776 471.617C322.272 471.168 322.901 470.943 323.663 470.943C324.467 470.943 325.098 471.156 325.555 471.582C326.012 472.007 326.241 472.599 326.241 473.357C326.241 473.728 326.12 474.088 325.878 474.435C325.639 474.783 325.313 475.043 324.899 475.214C325.368 475.363 325.729 475.609 325.983 475.953C326.241 476.297 326.37 476.716 326.37 477.213C326.37 477.978 326.12 478.586 325.62 479.035C325.12 479.484 324.469 479.709 323.669 479.709C322.868 479.709 322.215 479.492 321.712 479.058C321.212 478.625 320.962 478.052 320.962 477.341H322.051C322.051 477.791 322.198 478.15 322.491 478.42C322.784 478.689 323.176 478.824 323.669 478.824C324.192 478.824 324.592 478.687 324.87 478.414C325.147 478.14 325.286 477.748 325.286 477.236C325.286 476.74 325.133 476.359 324.829 476.093C324.524 475.828 324.085 475.691 323.51 475.683H322.696V474.798ZM327.934 479.023C327.934 478.836 327.989 478.679 328.098 478.554C328.212 478.429 328.379 478.367 328.602 478.367C328.825 478.367 328.993 478.429 329.106 478.554C329.223 478.679 329.282 478.836 329.282 479.023C329.282 479.203 329.223 479.353 329.106 479.474C328.993 479.595 328.825 479.656 328.602 479.656C328.379 479.656 328.212 479.595 328.098 479.474C327.989 479.353 327.934 479.203 327.934 479.023ZM327.94 473.849C327.94 473.662 327.995 473.505 328.104 473.38C328.217 473.255 328.385 473.193 328.608 473.193C328.831 473.193 328.999 473.255 329.112 473.38C329.229 473.505 329.288 473.662 329.288 473.849C329.288 474.029 329.229 474.179 329.112 474.3C328.999 474.422 328.831 474.482 328.608 474.482C328.385 474.482 328.217 474.422 328.104 474.3C327.995 474.179 327.94 474.029 327.94 473.849ZM336.114 475.953C336.114 477.222 335.897 478.166 335.463 478.783C335.03 479.4 334.352 479.709 333.43 479.709C332.52 479.709 331.846 479.408 331.409 478.806C330.971 478.201 330.745 477.298 330.729 476.099V474.652C330.729 473.398 330.946 472.466 331.379 471.857C331.813 471.248 332.493 470.943 333.419 470.943C334.337 470.943 335.012 471.238 335.446 471.828C335.879 472.414 336.102 473.32 336.114 474.547V475.953ZM335.03 474.47C335.03 473.552 334.901 472.884 334.643 472.466C334.385 472.045 333.977 471.834 333.419 471.834C332.864 471.834 332.46 472.043 332.206 472.461C331.952 472.879 331.821 473.521 331.813 474.388V476.123C331.813 477.045 331.946 477.726 332.212 478.168C332.481 478.605 332.887 478.824 333.43 478.824C333.965 478.824 334.362 478.617 334.62 478.203C334.881 477.789 335.018 477.136 335.03 476.246V474.47ZM342.852 475.953C342.852 477.222 342.635 478.166 342.202 478.783C341.768 479.4 341.09 479.709 340.169 479.709C339.258 479.709 338.585 479.408 338.147 478.806C337.71 478.201 337.483 477.298 337.467 476.099V474.652C337.467 473.398 337.684 472.466 338.118 471.857C338.551 471.248 339.231 470.943 340.157 470.943C341.075 470.943 341.751 471.238 342.184 471.828C342.618 472.414 342.84 473.32 342.852 474.547V475.953ZM341.768 474.47C341.768 473.552 341.639 472.884 341.381 472.466C341.124 472.045 340.715 471.834 340.157 471.834C339.602 471.834 339.198 472.043 338.944 472.461C338.69 472.879 338.559 473.521 338.551 474.388V476.123C338.551 477.045 338.684 477.726 338.95 478.168C339.219 478.605 339.626 478.824 340.169 478.824C340.704 478.824 341.1 478.617 341.358 478.203C341.62 477.789 341.756 477.136 341.768 476.246V474.47ZM325.063 490.252V493.591H323.938V485.06H327.085C328.018 485.06 328.749 485.298 329.276 485.775C329.807 486.252 330.073 486.882 330.073 487.668C330.073 488.496 329.813 489.134 329.294 489.584C328.778 490.029 328.038 490.252 327.073 490.252H325.063ZM325.063 489.332H327.085C327.686 489.332 328.147 489.191 328.467 488.91C328.788 488.625 328.948 488.214 328.948 487.679C328.948 487.172 328.788 486.765 328.467 486.461C328.147 486.156 327.708 485.998 327.149 485.986H325.063V489.332ZM332.962 485.06L335.751 492.021L338.54 485.06H339.999V493.591H338.874V490.269L338.979 486.683L336.178 493.591H335.317L332.522 486.701L332.633 490.269V493.591H331.508V485.06H332.962Z" fill="#011627"/>
<rect x="254.322" y="456.949" width="28.4954" height="5.29182" rx="2.64591" fill="#FF9F1C"/>
<rect x="254.322" y="446.366" width="28.4954" height="5.29183" rx="2.64592" fill="#FF9F1C"/>
<rect x="254.322" y="435.782" width="28.4954" height="5.29183" rx="2.64592" fill="#FF9F1C"/>
<rect x="254.322" y="425.198" width="28.4954" height="5.29183" rx="2.64592" fill="#011627"/>
<rect x="254.322" y="414.615" width="28.4954" height="5.29182" rx="2.64591" fill="#011627"/>
<rect x="254.322" y="404.031" width="28.4954" height="5.29182" rx="2.64591" fill="#011627"/>
<rect x="254.322" y="393.448" width="28.4954" height="5.29183" rx="2.64591" fill="#011627"/>
<rect x="254.322" y="382.864" width="28.4954" height="5.29183" rx="2.64591" fill="#011627"/>
<rect x="254.322" y="372.28" width="28.4954" height="5.29183" rx="2.64591" fill="#011627"/>
<path d="M264.02 479.591H258.43V478.812L261.383 475.531C261.821 475.035 262.121 474.632 262.285 474.324C262.453 474.011 262.537 473.689 262.537 473.357C262.537 472.912 262.403 472.547 262.133 472.261C261.864 471.976 261.504 471.834 261.055 471.834C260.516 471.834 260.096 471.988 259.795 472.297C259.498 472.601 259.35 473.027 259.35 473.574H258.266C258.266 472.789 258.518 472.154 259.022 471.67C259.53 471.185 260.207 470.943 261.055 470.943C261.848 470.943 262.475 471.152 262.936 471.57C263.397 471.984 263.627 472.537 263.627 473.228C263.627 474.068 263.092 475.068 262.022 476.228L259.737 478.707H264.02V479.591ZM265.244 479.023C265.244 478.836 265.299 478.679 265.409 478.554C265.522 478.429 265.69 478.367 265.912 478.367C266.135 478.367 266.303 478.429 266.416 478.554C266.534 478.679 266.592 478.836 266.592 479.023C266.592 479.203 266.534 479.353 266.416 479.474C266.303 479.595 266.135 479.656 265.912 479.656C265.69 479.656 265.522 479.595 265.409 479.474C265.299 479.353 265.244 479.203 265.244 479.023ZM265.25 473.849C265.25 473.662 265.305 473.505 265.414 473.38C265.528 473.255 265.696 473.193 265.918 473.193C266.141 473.193 266.309 473.255 266.422 473.38C266.539 473.505 266.598 473.662 266.598 473.849C266.598 474.029 266.539 474.179 266.422 474.3C266.309 474.422 266.141 474.482 265.918 474.482C265.696 474.482 265.528 474.422 265.414 474.3C265.305 474.179 265.25 474.029 265.25 473.849ZM273.424 475.953C273.424 477.222 273.207 478.166 272.774 478.783C272.34 479.4 271.662 479.709 270.741 479.709C269.83 479.709 269.157 479.408 268.719 478.806C268.282 478.201 268.055 477.298 268.039 476.099V474.652C268.039 473.398 268.256 472.466 268.69 471.857C269.123 471.248 269.803 470.943 270.729 470.943C271.647 470.943 272.323 471.238 272.756 471.828C273.19 472.414 273.412 473.32 273.424 474.547V475.953ZM272.34 474.47C272.34 473.552 272.211 472.884 271.953 472.466C271.696 472.045 271.287 471.834 270.729 471.834C270.174 471.834 269.77 472.043 269.516 472.461C269.262 472.879 269.131 473.521 269.123 474.388V476.123C269.123 477.045 269.256 477.726 269.522 478.168C269.791 478.605 270.198 478.824 270.741 478.824C271.276 478.824 271.672 478.617 271.93 478.203C272.192 477.789 272.328 477.136 272.34 476.246V474.47ZM280.162 475.953C280.162 477.222 279.946 478.166 279.512 478.783C279.078 479.4 278.401 479.709 277.479 479.709C276.569 479.709 275.895 479.408 275.457 478.806C275.02 478.201 274.793 477.298 274.778 476.099V474.652C274.778 473.398 274.994 472.466 275.428 471.857C275.862 471.248 276.541 470.943 277.467 470.943C278.385 470.943 279.061 471.238 279.494 471.828C279.928 472.414 280.151 473.32 280.162 474.547V475.953ZM279.078 474.47C279.078 473.552 278.95 472.884 278.692 472.466C278.434 472.045 278.026 471.834 277.467 471.834C276.912 471.834 276.508 472.043 276.254 472.461C276 472.879 275.869 473.521 275.862 474.388V476.123C275.862 477.045 275.994 477.726 276.26 478.168C276.53 478.605 276.936 478.824 277.479 478.824C278.014 478.824 278.41 478.617 278.668 478.203C278.93 477.789 279.067 477.136 279.078 476.246V474.47ZM262.373 490.252V493.591H261.248V485.06H264.395C265.328 485.06 266.059 485.298 266.586 485.775C267.118 486.252 267.383 486.882 267.383 487.668C267.383 488.496 267.123 489.134 266.604 489.584C266.088 490.029 265.348 490.252 264.383 490.252H262.373ZM262.373 489.332H264.395C264.996 489.332 265.457 489.191 265.778 488.91C266.098 488.625 266.258 488.214 266.258 487.679C266.258 487.172 266.098 486.765 265.778 486.461C265.457 486.156 265.018 485.998 264.459 485.986H262.373V489.332ZM270.272 485.06L273.061 492.021L275.85 485.06H277.309V493.591H276.184V490.269L276.289 486.683L273.489 493.591H272.627L269.832 486.701L269.944 490.269V493.591H268.819V485.06H270.272Z" fill="#011627"/>
<rect x="191.632" y="456.949" width="28.4954" height="5.29182" rx="2.64591" fill="#FF9F1C"/>
<rect x="191.632" y="446.366" width="28.4954" height="5.29183" rx="2.64592" fill="#FF9F1C"/>
<rect x="191.632" y="435.782" width="28.4954" height="5.29183" rx="2.64592" fill="#FF9F1C"/>
<rect x="191.632" y="425.198" width="28.4954" height="5.29183" rx="2.64592" fill="#FF9F1C"/>
<rect x="191.632" y="414.615" width="28.4954" height="5.29182" rx="2.64591" fill="#011627"/>
<rect x="191.632" y="404.031" width="28.4954" height="5.29182" rx="2.64591" fill="#011627"/>
<rect x="191.632" y="393.448" width="28.4954" height="5.29183" rx="2.64591" fill="#011627"/>
<rect x="191.632" y="382.864" width="28.4954" height="5.29183" rx="2.64591" fill="#011627"/>
<rect x="191.632" y="372.28" width="28.4954" height="5.29183" rx="2.64591" fill="#011627"/>
<path d="M199.303 479.591H198.213V472.367L196.027 473.17V472.185L199.133 471.019H199.303V479.591ZM202.555 479.023C202.555 478.836 202.609 478.679 202.719 478.554C202.832 478.429 203 478.367 203.223 478.367C203.445 478.367 203.613 478.429 203.726 478.554C203.844 478.679 203.902 478.836 203.902 479.023C203.902 479.203 203.844 479.353 203.726 479.474C203.613 479.595 203.445 479.656 203.223 479.656C203 479.656 202.832 479.595 202.719 479.474C202.609 479.353 202.555 479.203 202.555 479.023ZM202.56 473.849C202.56 473.662 202.615 473.505 202.724 473.38C202.838 473.255 203.006 473.193 203.228 473.193C203.451 473.193 203.619 473.255 203.732 473.38C203.849 473.505 203.908 473.662 203.908 473.849C203.908 474.029 203.849 474.179 203.732 474.3C203.619 474.422 203.451 474.482 203.228 474.482C203.006 474.482 202.838 474.422 202.724 474.3C202.615 474.179 202.56 474.029 202.56 473.849ZM210.734 475.953C210.734 477.222 210.517 478.166 210.084 478.783C209.65 479.4 208.973 479.709 208.051 479.709C207.14 479.709 206.467 479.408 206.029 478.806C205.592 478.201 205.365 477.298 205.349 476.099V474.652C205.349 473.398 205.566 472.466 206 471.857C206.433 471.248 207.113 470.943 208.039 470.943C208.957 470.943 209.633 471.238 210.066 471.828C210.5 472.414 210.723 473.32 210.734 474.547V475.953ZM209.65 474.47C209.65 473.552 209.521 472.884 209.264 472.466C209.006 472.045 208.598 471.834 208.039 471.834C207.484 471.834 207.08 472.043 206.826 472.461C206.572 472.879 206.441 473.521 206.433 474.388V476.123C206.433 477.045 206.566 477.726 206.832 478.168C207.101 478.605 207.508 478.824 208.051 478.824C208.586 478.824 208.982 478.617 209.24 478.203C209.502 477.789 209.639 477.136 209.65 476.246V474.47ZM217.473 475.953C217.473 477.222 217.256 478.166 216.822 478.783C216.389 479.4 215.711 479.709 214.789 479.709C213.879 479.709 213.205 479.408 212.767 478.806C212.33 478.201 212.103 477.298 212.088 476.099V474.652C212.088 473.398 212.305 472.466 212.738 471.857C213.172 471.248 213.851 470.943 214.777 470.943C215.695 470.943 216.371 471.238 216.805 471.828C217.238 472.414 217.461 473.32 217.473 474.547V475.953ZM216.389 474.47C216.389 473.552 216.26 472.884 216.002 472.466C215.744 472.045 215.336 471.834 214.777 471.834C214.223 471.834 213.818 472.043 213.564 472.461C213.31 472.879 213.18 473.521 213.172 474.388V476.123C213.172 477.045 213.305 477.726 213.57 478.168C213.84 478.605 214.246 478.824 214.789 478.824C215.324 478.824 215.721 478.617 215.978 478.203C216.24 477.789 216.377 477.136 216.389 476.246V474.47ZM199.683 490.252V493.591H198.558V485.06H201.705C202.639 485.06 203.369 485.298 203.896 485.775C204.428 486.252 204.693 486.882 204.693 487.668C204.693 488.496 204.433 489.134 203.914 489.584C203.398 490.029 202.658 490.252 201.693 490.252H199.683ZM199.683 489.332H201.705C202.306 489.332 202.767 489.191 203.088 488.91C203.408 488.625 203.568 488.214 203.568 487.679C203.568 487.172 203.408 486.765 203.088 486.461C202.767 486.156 202.328 485.998 201.769 485.986H199.683V489.332ZM207.582 485.06L210.371 492.021L213.16 485.06H214.619V493.591H213.494V490.269L213.599 486.683L210.799 493.591H209.937L207.142 486.701L207.254 490.269V493.591H206.129V485.06H207.582Z" fill="#011627"/>
<rect x="128.942" y="456.949" width="28.4954" height="5.29182" rx="2.64591" fill="#FF9F1C"/>
<rect x="128.942" y="446.366" width="28.4954" height="5.29183" rx="2.64592" fill="#FF9F1C"/>
<rect x="128.942" y="435.782" width="28.4954" height="5.29183" rx="2.64592" fill="#FF9F1C"/>
<rect x="128.942" y="425.198" width="28.4954" height="5.29183" rx="2.64592" fill="#FF9F1C"/>
<rect x="128.942" y="414.615" width="28.4954" height="5.29182" rx="2.64591" fill="#FF9F1C"/>
<rect x="128.942" y="404.031" width="28.4954" height="5.29182" rx="2.64591" fill="#FF9F1C"/>
<rect x="128.942" y="393.448" width="28.4954" height="5.29183" rx="2.64591" fill="#FF9F1C"/>
<rect x="128.942" y="382.864" width="28.4954" height="5.29183" rx="2.64591" fill="#011627"/>
<rect x="128.942" y="372.28" width="28.4954" height="5.29183" rx="2.64591" fill="#011627"/>
<path d="M133.6 479.591H132.51V472.367L130.324 473.17V472.185L133.43 471.019H133.6V479.591ZM142.365 479.591H136.775V478.812L139.729 475.531C140.166 475.035 140.467 474.632 140.631 474.324C140.799 474.011 140.883 473.689 140.883 473.357C140.883 472.912 140.748 472.547 140.479 472.261C140.209 471.976 139.85 471.834 139.4 471.834C138.861 471.834 138.441 471.988 138.141 472.297C137.844 472.601 137.695 473.027 137.695 473.574H136.611C136.611 472.789 136.863 472.154 137.367 471.67C137.875 471.185 138.553 470.943 139.4 470.943C140.193 470.943 140.82 471.152 141.281 471.57C141.742 471.984 141.973 472.537 141.973 473.228C141.973 474.068 141.438 475.068 140.367 476.228L138.082 478.707H142.365V479.591ZM143.59 479.023C143.59 478.836 143.645 478.679 143.754 478.554C143.867 478.429 144.035 478.367 144.258 478.367C144.481 478.367 144.648 478.429 144.762 478.554C144.879 478.679 144.938 478.836 144.938 479.023C144.938 479.203 144.879 479.353 144.762 479.474C144.648 479.595 144.481 479.656 144.258 479.656C144.035 479.656 143.867 479.595 143.754 479.474C143.645 479.353 143.59 479.203 143.59 479.023ZM143.596 473.849C143.596 473.662 143.65 473.505 143.76 473.38C143.873 473.255 144.041 473.193 144.264 473.193C144.486 473.193 144.654 473.255 144.768 473.38C144.885 473.505 144.943 473.662 144.943 473.849C144.943 474.029 144.885 474.179 144.768 474.3C144.654 474.422 144.486 474.482 144.264 474.482C144.041 474.482 143.873 474.422 143.76 474.3C143.65 474.179 143.596 474.029 143.596 473.849ZM151.77 475.953C151.77 477.222 151.553 478.166 151.119 478.783C150.686 479.4 150.008 479.709 149.086 479.709C148.176 479.709 147.502 479.408 147.064 478.806C146.627 478.201 146.4 477.298 146.385 476.099V474.652C146.385 473.398 146.602 472.466 147.035 471.857C147.469 471.248 148.148 470.943 149.074 470.943C149.992 470.943 150.668 471.238 151.102 471.828C151.535 472.414 151.758 473.32 151.77 474.547V475.953ZM150.686 474.47C150.686 473.552 150.557 472.884 150.299 472.466C150.041 472.045 149.633 471.834 149.074 471.834C148.52 471.834 148.115 472.043 147.861 472.461C147.607 472.879 147.477 473.521 147.469 474.388V476.123C147.469 477.045 147.602 477.726 147.867 478.168C148.137 478.605 148.543 478.824 149.086 478.824C149.621 478.824 150.018 478.617 150.275 478.203C150.537 477.789 150.674 477.136 150.686 476.246V474.47ZM158.508 475.953C158.508 477.222 158.291 478.166 157.857 478.783C157.424 479.4 156.746 479.709 155.824 479.709C154.914 479.709 154.24 479.408 153.803 478.806C153.365 478.201 153.139 477.298 153.123 476.099V474.652C153.123 473.398 153.34 472.466 153.773 471.857C154.207 471.248 154.887 470.943 155.813 470.943C156.731 470.943 157.406 471.238 157.84 471.828C158.273 472.414 158.496 473.32 158.508 474.547V475.953ZM157.424 474.47C157.424 473.552 157.295 472.884 157.037 472.466C156.779 472.045 156.371 471.834 155.813 471.834C155.258 471.834 154.854 472.043 154.6 472.461C154.346 472.879 154.215 473.521 154.207 474.388V476.123C154.207 477.045 154.34 477.726 154.606 478.168C154.875 478.605 155.281 478.824 155.824 478.824C156.359 478.824 156.756 478.617 157.014 478.203C157.275 477.789 157.412 477.136 157.424 476.246V474.47ZM137.35 490.252V493.591H136.225V485.06H139.371C140.305 485.06 141.035 485.298 141.563 485.775C142.094 486.252 142.359 486.882 142.359 487.668C142.359 488.496 142.1 489.134 141.58 489.584C141.064 490.029 140.324 490.252 139.359 490.252H137.35ZM137.35 489.332H139.371C139.973 489.332 140.434 489.191 140.754 488.91C141.074 488.625 141.234 488.214 141.234 487.679C141.234 487.172 141.074 486.765 140.754 486.461C140.434 486.156 139.994 485.998 139.436 485.986H137.35V489.332ZM145.248 485.06L148.037 492.021L150.826 485.06H152.285V493.591H151.16V490.269L151.266 486.683L148.465 493.591H147.604L144.809 486.701L144.92 490.269V493.591H143.795V485.06H145.248Z" fill="#011627"/>
<rect x="66.252" y="456.949" width="28.4954" height="5.29182" rx="2.64591" fill="#FF9F1C"/>
<rect x="66.252" y="446.366" width="28.4954" height="5.29183" rx="2.64592" fill="#FF9F1C"/>
<rect x="66.252" y="435.782" width="28.4954" height="5.29183" rx="2.64592" fill="#FF9F1C"/>
<rect x="66.252" y="425.198" width="28.4954" height="5.29183" rx="2.64592" fill="#FF9F1C"/>
<rect x="66.252" y="414.615" width="28.4954" height="5.29182" rx="2.64591" fill="#FF9F1C"/>
<rect x="66.252" y="404.031" width="28.4954" height="5.29182" rx="2.64591" fill="#FF9F1C"/>
<rect x="66.252" y="393.448" width="28.4954" height="5.29183" rx="2.64591" fill="#011627"/>
<rect x="66.252" y="382.864" width="28.4954" height="5.29183" rx="2.64591" fill="#011627"/>
<rect x="66.252" y="372.28" width="28.4954" height="5.29183" rx="2.64591" fill="#011627"/>
<path d="M70.5537 479.591H69.4639V472.367L67.2784 473.17V472.185L70.3838 471.019H70.5537V479.591ZM77.292 479.591H76.2022V472.367L74.0166 473.17V472.185L77.1221 471.019H77.292V479.591ZM80.544 479.023C80.544 478.836 80.5987 478.679 80.708 478.554C80.8213 478.429 80.9893 478.367 81.212 478.367C81.4346 478.367 81.6026 478.429 81.7159 478.554C81.833 478.679 81.8916 478.836 81.8916 479.023C81.8916 479.203 81.833 479.353 81.7159 479.474C81.6026 479.595 81.4346 479.656 81.212 479.656C80.9893 479.656 80.8213 479.595 80.708 479.474C80.5987 479.353 80.544 479.203 80.544 479.023ZM80.5498 473.849C80.5498 473.662 80.6045 473.505 80.7139 473.38C80.8272 473.255 80.9952 473.193 81.2178 473.193C81.4405 473.193 81.6084 473.255 81.7217 473.38C81.8389 473.505 81.8975 473.662 81.8975 473.849C81.8975 474.029 81.8389 474.179 81.7217 474.3C81.6084 474.422 81.4405 474.482 81.2178 474.482C80.9952 474.482 80.8272 474.422 80.7139 474.3C80.6045 474.179 80.5498 474.029 80.5498 473.849ZM88.7237 475.953C88.7237 477.222 88.5069 478.166 88.0733 478.783C87.6397 479.4 86.962 479.709 86.0401 479.709C85.1299 479.709 84.4561 479.408 84.0186 478.806C83.5811 478.201 83.3545 477.298 83.3389 476.099V474.652C83.3389 473.398 83.5557 472.466 83.9893 471.857C84.4229 471.248 85.1026 470.943 86.0284 470.943C86.9463 470.943 87.6221 471.238 88.0557 471.828C88.4893 472.414 88.712 473.32 88.7237 474.547V475.953ZM87.6397 474.47C87.6397 473.552 87.5108 472.884 87.253 472.466C86.9952 472.045 86.587 471.834 86.0284 471.834C85.4737 471.834 85.0694 472.043 84.8155 472.461C84.5616 472.879 84.4307 473.521 84.4229 474.388V476.123C84.4229 477.045 84.5557 477.726 84.8213 478.168C85.0909 478.605 85.4971 478.824 86.0401 478.824C86.5752 478.824 86.9717 478.617 87.2295 478.203C87.4912 477.789 87.628 477.136 87.6397 476.246V474.47ZM95.462 475.953C95.462 477.222 95.2452 478.166 94.8116 478.783C94.378 479.4 93.7002 479.709 92.7784 479.709C91.8682 479.709 91.1944 479.408 90.7569 478.806C90.3194 478.201 90.0928 477.298 90.0772 476.099V474.652C90.0772 473.398 90.294 472.466 90.7276 471.857C91.1612 471.248 91.8409 470.943 92.7666 470.943C93.6846 470.943 94.3604 471.238 94.794 471.828C95.2276 472.414 95.4502 473.32 95.462 474.547V475.953ZM94.378 474.47C94.378 473.552 94.2491 472.884 93.9912 472.466C93.7334 472.045 93.3252 471.834 92.7666 471.834C92.212 471.834 91.8077 472.043 91.5537 472.461C91.2998 472.879 91.169 473.521 91.1612 474.388V476.123C91.1612 477.045 91.294 477.726 91.5596 478.168C91.8291 478.605 92.2354 478.824 92.7784 478.824C93.3135 478.824 93.71 478.617 93.9678 478.203C94.2295 477.789 94.3662 477.136 94.378 476.246V474.47ZM77.7608 491.365H74.1866L73.3838 493.591H72.2237L75.4815 485.06H76.4659L79.7295 493.591H78.5752L77.7608 491.365ZM74.5264 490.439H77.4268L75.9737 486.449L74.5264 490.439ZM82.3311 485.06L85.1202 492.021L87.9092 485.06H89.3682V493.591H88.2432V490.269L88.3487 486.683L85.5479 493.591H84.6866L81.8916 486.701L82.003 490.269V493.591H80.878V485.06H82.3311Z" fill="#011627"/>
<rect x="3.56201" y="456.949" width="28.4954" height="5.29182" rx="2.64591" fill="#FF9F1C"/>
<rect x="3.56201" y="446.366" width="28.4954" height="5.29183" rx="2.64592" fill="#FF9F1C"/>
<rect x="3.56201" y="435.782" width="28.4954" height="5.29183" rx="2.64592" fill="#011627"/>
<rect x="3.56201" y="425.198" width="28.4954" height="5.29183" rx="2.64592" fill="#011627"/>
<rect x="3.56201" y="414.615" width="28.4954" height="5.29182" rx="2.64591" fill="#011627"/>
<rect x="3.56201" y="404.031" width="28.4954" height="5.29182" rx="2.64591" fill="#011627"/>
<rect x="3.56201" y="393.448" width="28.4954" height="5.29183" rx="2.64591" fill="#011627"/>
<rect x="3.56201" y="382.864" width="28.4954" height="5.29183" rx="2.64591" fill="#011627"/>
<rect x="3.56201" y="372.28" width="28.4954" height="5.29183" rx="2.64591" fill="#011627"/>
<path d="M7.8638 479.591H6.77396V472.367L4.58841 473.17V472.185L7.69388 471.019H7.8638V479.591ZM16.3892 475.953C16.3892 477.222 16.1724 478.166 15.7388 478.783C15.3052 479.4 14.6275 479.709 13.7056 479.709C12.7954 479.709 12.1216 479.408 11.6841 478.806C11.2466 478.201 11.0201 477.298 11.0044 476.099V474.652C11.0044 473.398 11.2212 472.466 11.6548 471.857C12.0884 471.248 12.7681 470.943 13.6939 470.943C14.6118 470.943 15.2876 471.238 15.7212 471.828C16.1548 472.414 16.3775 473.32 16.3892 474.547V475.953ZM15.3052 474.47C15.3052 473.552 15.1763 472.884 14.9185 472.466C14.6607 472.045 14.2525 471.834 13.6939 471.834C13.1392 471.834 12.7349 472.043 12.481 472.461C12.2271 472.879 12.0962 473.521 12.0884 474.388V476.123C12.0884 477.045 12.2212 477.726 12.4868 478.168C12.7564 478.605 13.1626 478.824 13.7056 478.824C14.2408 478.824 14.6372 478.617 14.8951 478.203C15.1568 477.789 15.2935 477.136 15.3052 476.246V474.47ZM17.854 479.023C17.854 478.836 17.9087 478.679 18.0181 478.554C18.1314 478.429 18.2993 478.367 18.522 478.367C18.7447 478.367 18.9126 478.429 19.0259 478.554C19.1431 478.679 19.2017 478.836 19.2017 479.023C19.2017 479.203 19.1431 479.353 19.0259 479.474C18.9126 479.595 18.7447 479.656 18.522 479.656C18.2993 479.656 18.1314 479.595 18.0181 479.474C17.9087 479.353 17.854 479.203 17.854 479.023ZM17.8599 473.849C17.8599 473.662 17.9146 473.505 18.024 473.38C18.1372 473.255 18.3052 473.193 18.5279 473.193C18.7505 473.193 18.9185 473.255 19.0318 473.38C19.149 473.505 19.2076 473.662 19.2076 473.849C19.2076 474.029 19.149 474.179 19.0318 474.3C18.9185 474.422 18.7505 474.482 18.5279 474.482C18.3052 474.482 18.1372 474.422 18.024 474.3C17.9146 474.179 17.8599 474.029 17.8599 473.849ZM26.0337 475.953C26.0337 477.222 25.8169 478.166 25.3833 478.783C24.9497 479.4 24.272 479.709 23.3501 479.709C22.44 479.709 21.7661 479.408 21.3286 478.806C20.8911 478.201 20.6646 477.298 20.649 476.099V474.652C20.649 473.398 20.8658 472.466 21.2993 471.857C21.7329 471.248 22.4126 470.943 23.3384 470.943C24.2564 470.943 24.9322 471.238 25.3658 471.828C25.7993 472.414 26.022 473.32 26.0337 474.547V475.953ZM24.9497 474.47C24.9497 473.552 24.8208 472.884 24.563 472.466C24.3052 472.045 23.897 471.834 23.3384 471.834C22.7837 471.834 22.3794 472.043 22.1255 472.461C21.8716 472.879 21.7408 473.521 21.7329 474.388V476.123C21.7329 477.045 21.8658 477.726 22.1314 478.168C22.4009 478.605 22.8072 478.824 23.3501 478.824C23.8853 478.824 24.2818 478.617 24.5396 478.203C24.8013 477.789 24.938 477.136 24.9497 476.246V474.47ZM32.772 475.953C32.772 477.222 32.5552 478.166 32.1216 478.783C31.688 479.4 31.0103 479.709 30.0884 479.709C29.1783 479.709 28.5044 479.408 28.0669 478.806C27.6294 478.201 27.4029 477.298 27.3872 476.099V474.652C27.3872 473.398 27.604 472.466 28.0376 471.857C28.4712 471.248 29.1509 470.943 30.0767 470.943C30.9947 470.943 31.6704 471.238 32.104 471.828C32.5376 472.414 32.7603 473.32 32.772 474.547V475.953ZM31.688 474.47C31.688 473.552 31.5591 472.884 31.3013 472.466C31.0435 472.045 30.6353 471.834 30.0767 471.834C29.522 471.834 29.1177 472.043 28.8638 472.461C28.6099 472.879 28.479 473.521 28.4712 474.388V476.123C28.4712 477.045 28.604 477.726 28.8697 478.168C29.1392 478.605 29.5454 478.824 30.0884 478.824C30.6236 478.824 31.0201 478.617 31.2779 478.203C31.5396 477.789 31.6763 477.136 31.688 476.246V474.47ZM15.0708 491.365H11.4966L10.6939 493.591H9.53372L12.7915 485.06H13.7759L17.0396 493.591H15.8853L15.0708 491.365ZM11.8365 490.439H14.7368L13.2837 486.449L11.8365 490.439ZM19.6411 485.06L22.4302 492.021L25.2193 485.06H26.6783V493.591H25.5533V490.269L25.6587 486.683L22.8579 493.591H21.9966L19.2017 486.701L19.313 490.269V493.591H18.188V485.06H19.6411Z" fill="#011627"/>
<path d="M108.7 343.914L113.157 354.581L117.631 343.914H118.993V356H117.972V350.737L118.055 345.342L113.556 356H112.767L108.285 345.383L108.368 350.704V356H107.347V343.914H108.7ZM121.275 351.376C121.275 350.513 121.441 349.736 121.773 349.044C122.111 348.352 122.584 347.815 123.193 347.434C123.807 347.046 124.502 346.853 125.276 346.853C126.472 346.853 127.44 347.273 128.182 348.114C128.923 348.95 129.294 350.059 129.294 351.443V351.65C129.294 352.519 129.125 353.302 128.788 354C128.456 354.691 127.985 355.225 127.376 355.602C126.768 355.978 126.073 356.166 125.293 356.166C124.103 356.166 123.135 355.748 122.388 354.913C121.646 354.071 121.275 352.959 121.275 351.576V351.376ZM122.271 351.65C122.271 352.724 122.548 353.607 123.102 354.298C123.66 354.985 124.391 355.328 125.293 355.328C126.189 355.328 126.914 354.985 127.468 354.298C128.027 353.607 128.306 352.696 128.306 351.567V351.376C128.306 350.69 128.179 350.062 127.924 349.492C127.67 348.922 127.313 348.482 126.854 348.172C126.394 347.857 125.868 347.699 125.276 347.699C124.391 347.699 123.669 348.048 123.11 348.745C122.551 349.437 122.271 350.344 122.271 351.468V351.65ZM136.731 353.717C136.731 353.225 136.532 352.829 136.134 352.53C135.741 352.231 135.146 351.999 134.349 351.833C133.552 351.661 132.932 351.468 132.49 351.252C132.053 351.031 131.726 350.762 131.51 350.447C131.3 350.131 131.195 349.75 131.195 349.301C131.195 348.593 131.491 348.009 132.083 347.55C132.675 347.085 133.433 346.853 134.357 346.853C135.359 346.853 136.161 347.102 136.765 347.6C137.373 348.092 137.678 348.737 137.678 349.534H136.682C136.682 349.008 136.46 348.571 136.018 348.222C135.58 347.874 135.027 347.699 134.357 347.699C133.704 347.699 133.179 347.846 132.78 348.139C132.387 348.427 132.191 348.803 132.191 349.268C132.191 349.716 132.354 350.065 132.681 350.314C133.013 350.557 133.613 350.782 134.482 350.986C135.356 351.191 136.009 351.41 136.441 351.642C136.878 351.875 137.202 352.154 137.412 352.48C137.622 352.807 137.728 353.203 137.728 353.667C137.728 354.426 137.42 355.032 136.806 355.485C136.197 355.939 135.401 356.166 134.416 356.166C133.37 356.166 132.52 355.914 131.867 355.411C131.22 354.902 130.896 354.26 130.896 353.485H131.892C131.931 354.066 132.174 354.52 132.623 354.846C133.076 355.167 133.674 355.328 134.416 355.328C135.107 355.328 135.666 355.175 136.092 354.871C136.518 354.567 136.731 354.182 136.731 353.717ZM141.513 344.719V347.019H143.372V347.832H141.513V353.817C141.513 354.315 141.601 354.686 141.778 354.929C141.961 355.173 142.263 355.294 142.683 355.294C142.849 355.294 143.118 355.267 143.488 355.211L143.53 356.025C143.27 356.119 142.916 356.166 142.467 356.166C141.787 356.166 141.291 355.97 140.981 355.577C140.672 355.178 140.517 354.594 140.517 353.825V347.832H138.865V347.019H140.517V344.719H141.513ZM156.321 352.613H150.834L149.589 356H148.519L153.092 343.914H154.063L158.637 356H157.575L156.321 352.613ZM151.15 351.742H155.998L153.574 345.159L151.15 351.742ZM163.51 355.328C164.201 355.328 164.78 355.134 165.245 354.747C165.715 354.354 165.97 353.847 166.008 353.228H166.963C166.935 353.775 166.764 354.276 166.448 354.73C166.133 355.178 165.712 355.53 165.187 355.784C164.666 356.039 164.107 356.166 163.51 356.166C162.331 356.166 161.396 355.757 160.704 354.938C160.018 354.118 159.675 353.017 159.675 351.634V351.335C159.675 350.45 159.83 349.667 160.14 348.986C160.45 348.305 160.892 347.779 161.468 347.409C162.049 347.038 162.727 346.853 163.501 346.853C164.486 346.853 165.297 347.146 165.934 347.732C166.576 348.319 166.919 349.091 166.963 350.048H166.008C165.964 349.346 165.709 348.778 165.245 348.347C164.785 347.915 164.204 347.699 163.501 347.699C162.605 347.699 161.908 348.023 161.41 348.67C160.917 349.318 160.671 350.225 160.671 351.393V351.684C160.671 352.829 160.917 353.723 161.41 354.365C161.908 355.007 162.608 355.328 163.51 355.328ZM170.499 344.719V347.019H172.358V347.832H170.499V353.817C170.499 354.315 170.588 354.686 170.765 354.929C170.947 355.173 171.249 355.294 171.669 355.294C171.835 355.294 172.104 355.267 172.475 355.211L172.516 356.025C172.256 356.119 171.902 356.166 171.454 356.166C170.773 356.166 170.278 355.97 169.968 355.577C169.658 355.178 169.503 354.594 169.503 353.825V347.832H167.851V347.019H169.503V344.719H170.499ZM175.529 356H174.533V347.019H175.529V356ZM174.359 344.42C174.359 344.232 174.42 344.075 174.542 343.947C174.663 343.814 174.829 343.748 175.04 343.748C175.25 343.748 175.416 343.814 175.538 343.947C175.665 344.075 175.729 344.232 175.729 344.42C175.729 344.609 175.665 344.766 175.538 344.894C175.416 345.021 175.25 345.084 175.04 345.084C174.829 345.084 174.663 345.021 174.542 344.894C174.42 344.766 174.359 344.609 174.359 344.42ZM181.033 354.63L183.764 347.019H184.785L181.431 356H180.626L177.256 347.019H178.277L181.033 354.63ZM189.782 356.166C189.018 356.166 188.326 355.978 187.707 355.602C187.092 355.225 186.614 354.702 186.271 354.033C185.927 353.358 185.756 352.602 185.756 351.767V351.41C185.756 350.546 185.922 349.769 186.254 349.077C186.591 348.385 187.059 347.843 187.657 347.45C188.254 347.052 188.902 346.853 189.599 346.853C190.689 346.853 191.553 347.226 192.189 347.973C192.831 348.715 193.152 349.73 193.152 351.02V351.576H186.744V351.767C186.744 352.785 187.034 353.634 187.615 354.315C188.202 354.99 188.938 355.328 189.823 355.328C190.354 355.328 190.822 355.231 191.226 355.037C191.636 354.843 192.006 354.534 192.338 354.107L192.961 354.581C192.23 355.638 191.171 356.166 189.782 356.166ZM189.599 347.699C188.852 347.699 188.221 347.973 187.707 348.521C187.197 349.069 186.888 349.805 186.777 350.729H192.164V350.621C192.136 349.758 191.89 349.055 191.425 348.513C190.96 347.97 190.352 347.699 189.599 347.699ZM208.409 356H207.379V350.206H200.473V356H199.452V343.914H200.473V349.343H207.379V343.914H208.409V356ZM210.708 351.376C210.708 350.513 210.874 349.736 211.206 349.044C211.544 348.352 212.017 347.815 212.625 347.434C213.24 347.046 213.934 346.853 214.709 346.853C215.904 346.853 216.873 347.273 217.614 348.114C218.356 348.95 218.727 350.059 218.727 351.443V351.65C218.727 352.519 218.558 353.302 218.22 354C217.888 354.691 217.418 355.225 216.809 355.602C216.2 355.978 215.506 356.166 214.726 356.166C213.536 356.166 212.567 355.748 211.82 354.913C211.079 354.071 210.708 352.959 210.708 351.576V351.376ZM211.704 351.65C211.704 352.724 211.981 353.607 212.534 354.298C213.093 354.985 213.824 355.328 214.726 355.328C215.622 355.328 216.347 354.985 216.9 354.298C217.459 353.607 217.739 352.696 217.739 351.567V351.376C217.739 350.69 217.611 350.062 217.357 349.492C217.102 348.922 216.745 348.482 216.286 348.172C215.827 347.857 215.301 347.699 214.709 347.699C213.824 347.699 213.101 348.048 212.542 348.745C211.984 349.437 211.704 350.344 211.704 351.468V351.65ZM226.562 354.863C225.965 355.732 225.01 356.166 223.699 356.166C222.741 356.166 222.014 355.889 221.516 355.336C221.018 354.777 220.763 353.952 220.752 352.862V347.019H221.74V352.738C221.74 354.448 222.431 355.303 223.815 355.303C225.254 355.303 226.164 354.708 226.546 353.518V347.019H227.542V356H226.579L226.562 354.863ZM234.282 347.865C234.072 347.826 233.848 347.807 233.61 347.807C232.99 347.807 232.464 347.981 232.033 348.33C231.607 348.673 231.302 349.174 231.12 349.833V356H230.132V347.019H231.103L231.12 348.446C231.645 347.384 232.489 346.853 233.651 346.853C233.928 346.853 234.147 346.889 234.307 346.96L234.282 347.865ZM241.238 353.717C241.238 353.225 241.039 352.829 240.641 352.53C240.248 352.231 239.653 351.999 238.856 351.833C238.059 351.661 237.439 351.468 236.997 351.252C236.559 351.031 236.233 350.762 236.017 350.447C235.807 350.131 235.702 349.75 235.702 349.301C235.702 348.593 235.998 348.009 236.59 347.55C237.182 347.085 237.94 346.853 238.864 346.853C239.866 346.853 240.668 347.102 241.271 347.6C241.88 348.092 242.185 348.737 242.185 349.534H241.188C241.188 349.008 240.967 348.571 240.524 348.222C240.087 347.874 239.534 347.699 238.864 347.699C238.211 347.699 237.686 347.846 237.287 348.139C236.894 348.427 236.698 348.803 236.698 349.268C236.698 349.716 236.861 350.065 237.188 350.314C237.52 350.557 238.12 350.782 238.989 350.986C239.863 351.191 240.516 351.41 240.948 351.642C241.385 351.875 241.709 352.154 241.919 352.48C242.129 352.807 242.234 353.203 242.234 353.667C242.234 354.426 241.927 355.032 241.313 355.485C240.704 355.939 239.907 356.166 238.922 356.166C237.876 356.166 237.027 355.914 236.374 355.411C235.727 354.902 235.403 354.26 235.403 353.485H236.399C236.438 354.066 236.681 354.52 237.129 354.846C237.583 355.167 238.181 355.328 238.922 355.328C239.614 355.328 240.173 355.175 240.599 354.871C241.025 354.567 241.238 354.182 241.238 353.717Z" fill="#011627"/>
</svg>
