<svg width="289" height="135" viewBox="0 0 289 135" fill="none" xmlns="http://www.w3.org/2000/svg">
<rect x="263.265" y="98.3113" width="23.6643" height="4.35798" rx="2.17899" fill="#FF9F1C"/>
<rect x="263.265" y="89.5953" width="23.6643" height="4.35796" rx="2.17898" fill="#FF9F1C"/>
<rect x="263.265" y="80.8794" width="23.6643" height="4.35796" rx="2.17898" fill="#011627"/>
<rect x="263.265" y="72.1633" width="23.6643" height="4.35797" rx="2.17899" fill="#011627"/>
<rect x="263.265" y="63.4474" width="23.6643" height="4.35796" rx="2.17898" fill="#011627"/>
<rect x="263.265" y="54.7314" width="23.6643" height="4.35798" rx="2.17899" fill="#011627"/>
<rect x="263.265" y="46.0155" width="23.6643" height="4.35797" rx="2.17899" fill="#011627"/>
<rect x="263.265" y="37.2996" width="23.6643" height="4.35798" rx="2.17899" fill="#011627"/>
<rect x="263.265" y="28.5836" width="23.6643" height="4.35798" rx="2.17899" fill="#011627"/>
<path d="M266.565 115.099C267.445 115.147 268.113 115.387 268.569 115.819C269.033 116.243 269.265 116.799 269.265 117.487C269.265 117.967 269.149 118.395 268.917 118.771C268.685 119.139 268.341 119.431 267.885 119.647C267.429 119.863 266.873 119.971 266.217 119.971C265.609 119.971 265.033 119.875 264.489 119.683C263.953 119.483 263.521 119.219 263.193 118.891L263.613 118.207C263.893 118.495 264.265 118.731 264.729 118.915C265.193 119.091 265.689 119.179 266.217 119.179C266.905 119.179 267.437 119.031 267.813 118.735C268.189 118.431 268.377 118.015 268.377 117.487C268.377 116.967 268.189 116.559 267.813 116.263C267.437 115.967 266.869 115.819 266.109 115.819H265.509V115.183L267.837 112.267H263.541V111.499H268.941V112.111L266.565 115.099ZM271.131 114.847C270.955 114.847 270.803 114.783 270.675 114.655C270.555 114.527 270.495 114.371 270.495 114.187C270.495 114.003 270.555 113.851 270.675 113.731C270.803 113.603 270.955 113.539 271.131 113.539C271.307 113.539 271.459 113.603 271.587 113.731C271.715 113.851 271.779 114.003 271.779 114.187C271.779 114.371 271.715 114.527 271.587 114.655C271.459 114.783 271.307 114.847 271.131 114.847ZM271.131 119.959C270.955 119.959 270.803 119.895 270.675 119.767C270.555 119.639 270.495 119.483 270.495 119.299C270.495 119.115 270.555 118.963 270.675 118.843C270.803 118.715 270.955 118.651 271.131 118.651C271.307 118.651 271.459 118.715 271.587 118.843C271.715 118.963 271.779 119.115 271.779 119.299C271.779 119.483 271.715 119.639 271.587 119.767C271.459 119.895 271.307 119.959 271.131 119.959ZM276.374 119.971C275.726 119.971 275.146 119.799 274.634 119.455C274.13 119.111 273.734 118.619 273.446 117.979C273.166 117.331 273.026 116.571 273.026 115.699C273.026 114.827 273.166 114.071 273.446 113.431C273.734 112.783 274.13 112.287 274.634 111.943C275.146 111.599 275.726 111.427 276.374 111.427C277.022 111.427 277.598 111.599 278.102 111.943C278.614 112.287 279.014 112.783 279.302 113.431C279.59 114.071 279.734 114.827 279.734 115.699C279.734 116.571 279.59 117.331 279.302 117.979C279.014 118.619 278.614 119.111 278.102 119.455C277.598 119.799 277.022 119.971 276.374 119.971ZM276.374 119.179C276.862 119.179 277.29 119.043 277.658 118.771C278.034 118.499 278.326 118.103 278.534 117.583C278.742 117.063 278.846 116.435 278.846 115.699C278.846 114.963 278.742 114.335 278.534 113.815C278.326 113.295 278.034 112.899 277.658 112.627C277.29 112.355 276.862 112.219 276.374 112.219C275.886 112.219 275.454 112.355 275.078 112.627C274.71 112.899 274.422 113.295 274.214 113.815C274.006 114.335 273.902 114.963 273.902 115.699C273.902 116.435 274.006 117.063 274.214 117.583C274.422 118.103 274.71 118.499 275.078 118.771C275.454 119.043 275.886 119.179 276.374 119.179ZM284.319 119.971C283.671 119.971 283.091 119.799 282.579 119.455C282.075 119.111 281.679 118.619 281.391 117.979C281.111 117.331 280.971 116.571 280.971 115.699C280.971 114.827 281.111 114.071 281.391 113.431C281.679 112.783 282.075 112.287 282.579 111.943C283.091 111.599 283.671 111.427 284.319 111.427C284.967 111.427 285.543 111.599 286.047 111.943C286.559 112.287 286.959 112.783 287.247 113.431C287.535 114.071 287.679 114.827 287.679 115.699C287.679 116.571 287.535 117.331 287.247 117.979C286.959 118.619 286.559 119.111 286.047 119.455C285.543 119.799 284.967 119.971 284.319 119.971ZM284.319 119.179C284.807 119.179 285.235 119.043 285.603 118.771C285.979 118.499 286.271 118.103 286.479 117.583C286.687 117.063 286.791 116.435 286.791 115.699C286.791 114.963 286.687 114.335 286.479 113.815C286.271 113.295 285.979 112.899 285.603 112.627C285.235 112.355 284.807 112.219 284.319 112.219C283.831 112.219 283.399 112.355 283.023 112.627C282.655 112.899 282.367 113.295 282.159 113.815C281.951 114.335 281.847 114.963 281.847 115.699C281.847 116.435 281.951 117.063 282.159 117.583C282.367 118.103 282.655 118.499 283.023 118.771C283.399 119.043 283.831 119.179 284.319 119.179ZM270.222 126.499C271.294 126.499 272.134 126.755 272.742 127.267C273.35 127.779 273.654 128.483 273.654 129.379C273.654 130.275 273.35 130.979 272.742 131.491C272.134 131.995 271.294 132.247 270.222 132.247H267.966V134.899H267.078V126.499H270.222ZM270.198 131.467C271.03 131.467 271.666 131.287 272.106 130.927C272.546 130.559 272.766 130.043 272.766 129.379C272.766 128.699 272.546 128.179 272.106 127.819C271.666 127.451 271.03 127.267 270.198 127.267H267.966V131.467H270.198ZM284.298 126.499V134.899H283.446V128.179L280.146 133.831H279.726L276.426 128.215V134.899H275.574V126.499H276.306L279.954 132.727L283.566 126.499H284.298Z" fill="#011627"/>
<rect x="211.204" y="98.3113" width="23.6643" height="4.35798" rx="2.17899" fill="#FF9F1C"/>
<rect x="211.204" y="89.5953" width="23.6643" height="4.35796" rx="2.17898" fill="#FF9F1C"/>
<rect x="211.204" y="80.8794" width="23.6643" height="4.35796" rx="2.17898" fill="#FF9F1C"/>
<rect x="211.204" y="72.1633" width="23.6643" height="4.35797" rx="2.17899" fill="#011627"/>
<rect x="211.204" y="63.4474" width="23.6643" height="4.35796" rx="2.17898" fill="#011627"/>
<rect x="211.204" y="54.7314" width="23.6643" height="4.35798" rx="2.17899" fill="#011627"/>
<rect x="211.204" y="46.0155" width="23.6643" height="4.35797" rx="2.17899" fill="#011627"/>
<rect x="211.204" y="37.2996" width="23.6643" height="4.35798" rx="2.17899" fill="#011627"/>
<rect x="211.204" y="28.5836" width="23.6643" height="4.35798" rx="2.17899" fill="#011627"/>
<path d="M217.36 119.131V119.899H211.468V119.287L214.96 115.867C215.4 115.435 215.696 115.063 215.848 114.751C216.008 114.431 216.088 114.111 216.088 113.791C216.088 113.295 215.916 112.911 215.572 112.639C215.236 112.359 214.752 112.219 214.12 112.219C213.136 112.219 212.372 112.531 211.828 113.155L211.216 112.627C211.544 112.243 211.96 111.947 212.464 111.739C212.976 111.531 213.552 111.427 214.192 111.427C215.048 111.427 215.724 111.631 216.22 112.039C216.724 112.439 216.976 112.991 216.976 113.695C216.976 114.127 216.88 114.543 216.688 114.943C216.496 115.343 216.132 115.803 215.596 116.323L212.74 119.131H217.36ZM219.093 114.847C218.917 114.847 218.765 114.783 218.637 114.655C218.517 114.527 218.457 114.371 218.457 114.187C218.457 114.003 218.517 113.851 218.637 113.731C218.765 113.603 218.917 113.539 219.093 113.539C219.269 113.539 219.421 113.603 219.549 113.731C219.677 113.851 219.741 114.003 219.741 114.187C219.741 114.371 219.677 114.527 219.549 114.655C219.421 114.783 219.269 114.847 219.093 114.847ZM219.093 119.959C218.917 119.959 218.765 119.895 218.637 119.767C218.517 119.639 218.457 119.483 218.457 119.299C218.457 119.115 218.517 118.963 218.637 118.843C218.765 118.715 218.917 118.651 219.093 118.651C219.269 118.651 219.421 118.715 219.549 118.843C219.677 118.963 219.741 119.115 219.741 119.299C219.741 119.483 219.677 119.639 219.549 119.767C219.421 119.895 219.269 119.959 219.093 119.959ZM224.336 119.971C223.688 119.971 223.108 119.799 222.596 119.455C222.092 119.111 221.696 118.619 221.408 117.979C221.128 117.331 220.988 116.571 220.988 115.699C220.988 114.827 221.128 114.071 221.408 113.431C221.696 112.783 222.092 112.287 222.596 111.943C223.108 111.599 223.688 111.427 224.336 111.427C224.984 111.427 225.56 111.599 226.064 111.943C226.576 112.287 226.976 112.783 227.264 113.431C227.552 114.071 227.696 114.827 227.696 115.699C227.696 116.571 227.552 117.331 227.264 117.979C226.976 118.619 226.576 119.111 226.064 119.455C225.56 119.799 224.984 119.971 224.336 119.971ZM224.336 119.179C224.824 119.179 225.252 119.043 225.62 118.771C225.996 118.499 226.288 118.103 226.496 117.583C226.704 117.063 226.808 116.435 226.808 115.699C226.808 114.963 226.704 114.335 226.496 113.815C226.288 113.295 225.996 112.899 225.62 112.627C225.252 112.355 224.824 112.219 224.336 112.219C223.848 112.219 223.416 112.355 223.04 112.627C222.672 112.899 222.384 113.295 222.176 113.815C221.968 114.335 221.864 114.963 221.864 115.699C221.864 116.435 221.968 117.063 222.176 117.583C222.384 118.103 222.672 118.499 223.04 118.771C223.416 119.043 223.848 119.179 224.336 119.179ZM232.281 119.971C231.633 119.971 231.053 119.799 230.541 119.455C230.037 119.111 229.641 118.619 229.353 117.979C229.073 117.331 228.933 116.571 228.933 115.699C228.933 114.827 229.073 114.071 229.353 113.431C229.641 112.783 230.037 112.287 230.541 111.943C231.053 111.599 231.633 111.427 232.281 111.427C232.929 111.427 233.505 111.599 234.009 111.943C234.521 112.287 234.921 112.783 235.209 113.431C235.497 114.071 235.641 114.827 235.641 115.699C235.641 116.571 235.497 117.331 235.209 117.979C234.921 118.619 234.521 119.111 234.009 119.455C233.505 119.799 232.929 119.971 232.281 119.971ZM232.281 119.179C232.769 119.179 233.197 119.043 233.565 118.771C233.941 118.499 234.233 118.103 234.441 117.583C234.649 117.063 234.753 116.435 234.753 115.699C234.753 114.963 234.649 114.335 234.441 113.815C234.233 113.295 233.941 112.899 233.565 112.627C233.197 112.355 232.769 112.219 232.281 112.219C231.793 112.219 231.361 112.355 230.985 112.627C230.617 112.899 230.329 113.295 230.121 113.815C229.913 114.335 229.809 114.963 229.809 115.699C229.809 116.435 229.913 117.063 230.121 117.583C230.329 118.103 230.617 118.499 230.985 118.771C231.361 119.043 231.793 119.179 232.281 119.179ZM218.161 126.499C219.233 126.499 220.073 126.755 220.681 127.267C221.289 127.779 221.593 128.483 221.593 129.379C221.593 130.275 221.289 130.979 220.681 131.491C220.073 131.995 219.233 132.247 218.161 132.247H215.905V134.899H215.017V126.499H218.161ZM218.137 131.467C218.969 131.467 219.605 131.287 220.045 130.927C220.485 130.559 220.705 130.043 220.705 129.379C220.705 128.699 220.485 128.179 220.045 127.819C219.605 127.451 218.969 127.267 218.137 127.267H215.905V131.467H218.137ZM232.237 126.499V134.899H231.385V128.179L228.085 133.831H227.665L224.365 128.215V134.899H223.513V126.499H224.245L227.893 132.727L231.505 126.499H232.237Z" fill="#011627"/>
<rect x="159.142" y="98.3113" width="23.6642" height="4.35798" rx="2.17899" fill="#FF9F1C"/>
<rect x="159.142" y="89.5953" width="23.6642" height="4.35796" rx="2.17898" fill="#FF9F1C"/>
<rect x="159.142" y="80.8794" width="23.6642" height="4.35796" rx="2.17898" fill="#FF9F1C"/>
<rect x="159.142" y="72.1633" width="23.6642" height="4.35797" rx="2.17899" fill="#FF9F1C"/>
<rect x="159.142" y="63.4474" width="23.6642" height="4.35796" rx="2.17898" fill="#011627"/>
<rect x="159.142" y="54.7314" width="23.6642" height="4.35798" rx="2.17899" fill="#011627"/>
<rect x="159.142" y="46.0155" width="23.6642" height="4.35797" rx="2.17899" fill="#011627"/>
<rect x="159.142" y="37.2996" width="23.6642" height="4.35798" rx="2.17899" fill="#011627"/>
<rect x="159.142" y="28.5836" width="23.6642" height="4.35798" rx="2.17899" fill="#011627"/>
<path d="M163.456 111.067V119.467H162.592V111.835H160.612V111.067H163.456ZM166.112 114.415C165.936 114.415 165.784 114.351 165.656 114.223C165.536 114.095 165.476 113.939 165.476 113.755C165.476 113.571 165.536 113.419 165.656 113.299C165.784 113.171 165.936 113.107 166.112 113.107C166.288 113.107 166.44 113.171 166.568 113.299C166.696 113.419 166.76 113.571 166.76 113.755C166.76 113.939 166.696 114.095 166.568 114.223C166.44 114.351 166.288 114.415 166.112 114.415ZM166.112 119.527C165.936 119.527 165.784 119.463 165.656 119.335C165.536 119.207 165.476 119.051 165.476 118.867C165.476 118.683 165.536 118.531 165.656 118.411C165.784 118.283 165.936 118.219 166.112 118.219C166.288 118.219 166.44 118.283 166.568 118.411C166.696 118.531 166.76 118.683 166.76 118.867C166.76 119.051 166.696 119.207 166.568 119.335C166.44 119.463 166.288 119.527 166.112 119.527ZM171.355 119.539C170.707 119.539 170.127 119.367 169.615 119.023C169.111 118.679 168.715 118.187 168.427 117.547C168.147 116.899 168.007 116.139 168.007 115.267C168.007 114.395 168.147 113.639 168.427 112.999C168.715 112.351 169.111 111.855 169.615 111.511C170.127 111.167 170.707 110.995 171.355 110.995C172.003 110.995 172.579 111.167 173.083 111.511C173.595 111.855 173.995 112.351 174.283 112.999C174.571 113.639 174.715 114.395 174.715 115.267C174.715 116.139 174.571 116.899 174.283 117.547C173.995 118.187 173.595 118.679 173.083 119.023C172.579 119.367 172.003 119.539 171.355 119.539ZM171.355 118.747C171.843 118.747 172.271 118.611 172.639 118.339C173.015 118.067 173.307 117.671 173.515 117.151C173.723 116.631 173.827 116.003 173.827 115.267C173.827 114.531 173.723 113.903 173.515 113.383C173.307 112.863 173.015 112.467 172.639 112.195C172.271 111.923 171.843 111.787 171.355 111.787C170.867 111.787 170.435 111.923 170.059 112.195C169.691 112.467 169.403 112.863 169.195 113.383C168.987 113.903 168.883 114.531 168.883 115.267C168.883 116.003 168.987 116.631 169.195 117.151C169.403 117.671 169.691 118.067 170.059 118.339C170.435 118.611 170.867 118.747 171.355 118.747ZM179.3 119.539C178.652 119.539 178.072 119.367 177.56 119.023C177.056 118.679 176.66 118.187 176.372 117.547C176.092 116.899 175.952 116.139 175.952 115.267C175.952 114.395 176.092 113.639 176.372 112.999C176.66 112.351 177.056 111.855 177.56 111.511C178.072 111.167 178.652 110.995 179.3 110.995C179.948 110.995 180.524 111.167 181.028 111.511C181.54 111.855 181.94 112.351 182.228 112.999C182.516 113.639 182.66 114.395 182.66 115.267C182.66 116.139 182.516 116.899 182.228 117.547C181.94 118.187 181.54 118.679 181.028 119.023C180.524 119.367 179.948 119.539 179.3 119.539ZM179.3 118.747C179.788 118.747 180.216 118.611 180.584 118.339C180.96 118.067 181.252 117.671 181.46 117.151C181.668 116.631 181.772 116.003 181.772 115.267C181.772 114.531 181.668 113.903 181.46 113.383C181.252 112.863 180.96 112.467 180.584 112.195C180.216 111.923 179.788 111.787 179.3 111.787C178.812 111.787 178.38 111.923 178.004 112.195C177.636 112.467 177.348 112.863 177.14 113.383C176.932 113.903 176.828 114.531 176.828 115.267C176.828 116.003 176.932 116.631 177.14 117.151C177.348 117.671 177.636 118.067 178.004 118.339C178.38 118.611 178.812 118.747 179.3 118.747ZM166.422 126.067C167.494 126.067 168.334 126.323 168.942 126.835C169.55 127.347 169.854 128.051 169.854 128.947C169.854 129.843 169.55 130.547 168.942 131.059C168.334 131.563 167.494 131.815 166.422 131.815H164.166V134.467H163.278V126.067H166.422ZM166.398 131.035C167.23 131.035 167.866 130.855 168.306 130.495C168.746 130.127 168.966 129.611 168.966 128.947C168.966 128.267 168.746 127.747 168.306 127.387C167.866 127.019 167.23 126.835 166.398 126.835H164.166V131.035H166.398ZM180.498 126.067V134.467H179.646V127.747L176.346 133.399H175.926L172.626 127.783V134.467H171.774V126.067H172.506L176.154 132.295L179.766 126.067H180.498Z" fill="#011627"/>
<rect x="107.081" y="98.3113" width="23.6643" height="4.35798" rx="2.17899" fill="#FF9F1C"/>
<rect x="107.081" y="89.5953" width="23.6643" height="4.35796" rx="2.17898" fill="#FF9F1C"/>
<rect x="107.081" y="80.8794" width="23.6643" height="4.35796" rx="2.17898" fill="#FF9F1C"/>
<rect x="107.081" y="72.1633" width="23.6643" height="4.35797" rx="2.17899" fill="#FF9F1C"/>
<rect x="107.081" y="63.4474" width="23.6643" height="4.35796" rx="2.17898" fill="#FF9F1C"/>
<rect x="107.081" y="54.7314" width="23.6643" height="4.35798" rx="2.17899" fill="#FF9F1C"/>
<rect x="107.081" y="46.0155" width="23.6643" height="4.35797" rx="2.17899" fill="#FF9F1C"/>
<rect x="107.081" y="37.2996" width="23.6643" height="4.35798" rx="2.17899" fill="#011627"/>
<rect x="107.081" y="28.5836" width="23.6643" height="4.35798" rx="2.17899" fill="#011627"/>
<path d="M107.957 111.499V119.899H107.093V112.267H105.113V111.499H107.957ZM115.701 119.131V119.899H109.809V119.287L113.301 115.867C113.741 115.435 114.037 115.063 114.189 114.751C114.349 114.431 114.429 114.111 114.429 113.791C114.429 113.295 114.257 112.911 113.913 112.639C113.577 112.359 113.093 112.219 112.461 112.219C111.477 112.219 110.713 112.531 110.169 113.155L109.557 112.627C109.885 112.243 110.301 111.947 110.805 111.739C111.317 111.531 111.893 111.427 112.533 111.427C113.389 111.427 114.065 111.631 114.561 112.039C115.065 112.439 115.317 112.991 115.317 113.695C115.317 114.127 115.221 114.543 115.029 114.943C114.837 115.343 114.473 115.803 113.937 116.323L111.081 119.131H115.701ZM117.434 114.847C117.258 114.847 117.106 114.783 116.978 114.655C116.858 114.527 116.798 114.371 116.798 114.187C116.798 114.003 116.858 113.851 116.978 113.731C117.106 113.603 117.258 113.539 117.434 113.539C117.61 113.539 117.762 113.603 117.89 113.731C118.018 113.851 118.082 114.003 118.082 114.187C118.082 114.371 118.018 114.527 117.89 114.655C117.762 114.783 117.61 114.847 117.434 114.847ZM117.434 119.959C117.258 119.959 117.106 119.895 116.978 119.767C116.858 119.639 116.798 119.483 116.798 119.299C116.798 119.115 116.858 118.963 116.978 118.843C117.106 118.715 117.258 118.651 117.434 118.651C117.61 118.651 117.762 118.715 117.89 118.843C118.018 118.963 118.082 119.115 118.082 119.299C118.082 119.483 118.018 119.639 117.89 119.767C117.762 119.895 117.61 119.959 117.434 119.959ZM122.677 119.971C122.029 119.971 121.449 119.799 120.937 119.455C120.433 119.111 120.037 118.619 119.749 117.979C119.469 117.331 119.329 116.571 119.329 115.699C119.329 114.827 119.469 114.071 119.749 113.431C120.037 112.783 120.433 112.287 120.937 111.943C121.449 111.599 122.029 111.427 122.677 111.427C123.325 111.427 123.901 111.599 124.405 111.943C124.917 112.287 125.317 112.783 125.605 113.431C125.893 114.071 126.037 114.827 126.037 115.699C126.037 116.571 125.893 117.331 125.605 117.979C125.317 118.619 124.917 119.111 124.405 119.455C123.901 119.799 123.325 119.971 122.677 119.971ZM122.677 119.179C123.165 119.179 123.593 119.043 123.961 118.771C124.337 118.499 124.629 118.103 124.837 117.583C125.045 117.063 125.149 116.435 125.149 115.699C125.149 114.963 125.045 114.335 124.837 113.815C124.629 113.295 124.337 112.899 123.961 112.627C123.593 112.355 123.165 112.219 122.677 112.219C122.189 112.219 121.757 112.355 121.381 112.627C121.013 112.899 120.725 113.295 120.517 113.815C120.309 114.335 120.205 114.963 120.205 115.699C120.205 116.435 120.309 117.063 120.517 117.583C120.725 118.103 121.013 118.499 121.381 118.771C121.757 119.043 122.189 119.179 122.677 119.179ZM130.622 119.971C129.974 119.971 129.394 119.799 128.882 119.455C128.378 119.111 127.982 118.619 127.694 117.979C127.414 117.331 127.274 116.571 127.274 115.699C127.274 114.827 127.414 114.071 127.694 113.431C127.982 112.783 128.378 112.287 128.882 111.943C129.394 111.599 129.974 111.427 130.622 111.427C131.27 111.427 131.846 111.599 132.35 111.943C132.862 112.287 133.262 112.783 133.55 113.431C133.838 114.071 133.982 114.827 133.982 115.699C133.982 116.571 133.838 117.331 133.55 117.979C133.262 118.619 132.862 119.111 132.35 119.455C131.846 119.799 131.27 119.971 130.622 119.971ZM130.622 119.179C131.11 119.179 131.538 119.043 131.906 118.771C132.282 118.499 132.574 118.103 132.782 117.583C132.99 117.063 133.094 116.435 133.094 115.699C133.094 114.963 132.99 114.335 132.782 113.815C132.574 113.295 132.282 112.899 131.906 112.627C131.538 112.355 131.11 112.219 130.622 112.219C130.134 112.219 129.702 112.355 129.326 112.627C128.958 112.899 128.67 113.295 128.462 113.815C128.254 114.335 128.15 114.963 128.15 115.699C128.15 116.435 128.254 117.063 128.462 117.583C128.67 118.103 128.958 118.499 129.326 118.771C129.702 119.043 130.134 119.179 130.622 119.179ZM114.334 126.499C115.406 126.499 116.246 126.755 116.854 127.267C117.462 127.779 117.766 128.483 117.766 129.379C117.766 130.275 117.462 130.979 116.854 131.491C116.246 131.995 115.406 132.247 114.334 132.247H112.078V134.899H111.19V126.499H114.334ZM114.31 131.467C115.142 131.467 115.778 131.287 116.218 130.927C116.658 130.559 116.878 130.043 116.878 129.379C116.878 128.699 116.658 128.179 116.218 127.819C115.778 127.451 115.142 127.267 114.31 127.267H112.078V131.467H114.31ZM128.41 126.499V134.899H127.558V128.179L124.258 133.831H123.838L120.538 128.215V134.899H119.686V126.499H120.418L124.066 132.727L127.678 126.499H128.41Z" fill="#011627"/>
<rect x="55.0195" y="98.3113" width="23.6643" height="4.35798" rx="2.17899" fill="#FF9F1C"/>
<rect x="55.0195" y="89.5953" width="23.6643" height="4.35796" rx="2.17898" fill="#FF9F1C"/>
<rect x="55.0195" y="80.8794" width="23.6643" height="4.35796" rx="2.17898" fill="#FF9F1C"/>
<rect x="55.0195" y="72.1633" width="23.6643" height="4.35797" rx="2.17899" fill="#FF9F1C"/>
<rect x="55.0195" y="63.4474" width="23.6643" height="4.35796" rx="2.17898" fill="#FF9F1C"/>
<rect x="55.0195" y="54.7314" width="23.6643" height="4.35798" rx="2.17899" fill="#FF9F1C"/>
<rect x="55.0195" y="46.0155" width="23.6643" height="4.35797" rx="2.17899" fill="#011627"/>
<rect x="55.0195" y="37.2996" width="23.6643" height="4.35798" rx="2.17899" fill="#011627"/>
<rect x="55.0195" y="28.5836" width="23.6643" height="4.35798" rx="2.17899" fill="#011627"/>
<path d="M56.8425 111.499V119.899H55.9785V112.267H53.9985V111.499H56.8425ZM61.1784 111.499V119.899H60.3144V112.267H58.3344V111.499H61.1784ZM63.8344 114.847C63.6584 114.847 63.5064 114.783 63.3784 114.655C63.2584 114.527 63.1984 114.371 63.1984 114.187C63.1984 114.003 63.2584 113.851 63.3784 113.731C63.5064 113.603 63.6584 113.539 63.8344 113.539C64.0104 113.539 64.1624 113.603 64.2904 113.731C64.4184 113.851 64.4824 114.003 64.4824 114.187C64.4824 114.371 64.4184 114.527 64.2904 114.655C64.1624 114.783 64.0104 114.847 63.8344 114.847ZM63.8344 119.959C63.6584 119.959 63.5064 119.895 63.3784 119.767C63.2584 119.639 63.1984 119.483 63.1984 119.299C63.1984 119.115 63.2584 118.963 63.3784 118.843C63.5064 118.715 63.6584 118.651 63.8344 118.651C64.0104 118.651 64.1624 118.715 64.2904 118.843C64.4184 118.963 64.4824 119.115 64.4824 119.299C64.4824 119.483 64.4184 119.639 64.2904 119.767C64.1624 119.895 64.0104 119.959 63.8344 119.959ZM69.0774 119.971C68.4294 119.971 67.8494 119.799 67.3374 119.455C66.8334 119.111 66.4374 118.619 66.1494 117.979C65.8694 117.331 65.7294 116.571 65.7294 115.699C65.7294 114.827 65.8694 114.071 66.1494 113.431C66.4374 112.783 66.8334 112.287 67.3374 111.943C67.8494 111.599 68.4294 111.427 69.0774 111.427C69.7254 111.427 70.3014 111.599 70.8054 111.943C71.3174 112.287 71.7174 112.783 72.0054 113.431C72.2934 114.071 72.4374 114.827 72.4374 115.699C72.4374 116.571 72.2934 117.331 72.0054 117.979C71.7174 118.619 71.3174 119.111 70.8054 119.455C70.3014 119.799 69.7254 119.971 69.0774 119.971ZM69.0774 119.179C69.5654 119.179 69.9934 119.043 70.3614 118.771C70.7374 118.499 71.0294 118.103 71.2374 117.583C71.4454 117.063 71.5494 116.435 71.5494 115.699C71.5494 114.963 71.4454 114.335 71.2374 113.815C71.0294 113.295 70.7374 112.899 70.3614 112.627C69.9934 112.355 69.5654 112.219 69.0774 112.219C68.5894 112.219 68.1574 112.355 67.7814 112.627C67.4134 112.899 67.1254 113.295 66.9174 113.815C66.7094 114.335 66.6054 114.963 66.6054 115.699C66.6054 116.435 66.7094 117.063 66.9174 117.583C67.1254 118.103 67.4134 118.499 67.7814 118.771C68.1574 119.043 68.5894 119.179 69.0774 119.179ZM77.0227 119.971C76.3747 119.971 75.7947 119.799 75.2827 119.455C74.7787 119.111 74.3827 118.619 74.0947 117.979C73.8147 117.331 73.6747 116.571 73.6747 115.699C73.6747 114.827 73.8147 114.071 74.0947 113.431C74.3827 112.783 74.7787 112.287 75.2827 111.943C75.7947 111.599 76.3747 111.427 77.0227 111.427C77.6707 111.427 78.2467 111.599 78.7507 111.943C79.2627 112.287 79.6627 112.783 79.9507 113.431C80.2387 114.071 80.3827 114.827 80.3827 115.699C80.3827 116.571 80.2387 117.331 79.9507 117.979C79.6627 118.619 79.2627 119.111 78.7507 119.455C78.2467 119.799 77.6707 119.971 77.0227 119.971ZM77.0227 119.179C77.5107 119.179 77.9387 119.043 78.3067 118.771C78.6827 118.499 78.9747 118.103 79.1827 117.583C79.3907 117.063 79.4947 116.435 79.4947 115.699C79.4947 114.963 79.3907 114.335 79.1827 113.815C78.9747 113.295 78.6827 112.899 78.3067 112.627C77.9387 112.355 77.5107 112.219 77.0227 112.219C76.5347 112.219 76.1027 112.355 75.7267 112.627C75.3587 112.899 75.0707 113.295 74.8627 113.815C74.6547 114.335 74.5507 114.963 74.5507 115.699C74.5507 116.435 74.6547 117.063 74.8627 117.583C75.0707 118.103 75.3587 118.499 75.7267 118.771C76.1027 119.043 76.5347 119.179 77.0227 119.179ZM64.048 132.655H59.368L58.36 134.899H57.436L61.276 126.499H62.152L65.992 134.899H65.056L64.048 132.655ZM63.724 131.935L61.708 127.423L59.692 131.935H63.724ZM76.1056 126.499V134.899H75.2536V128.179L71.9536 133.831H71.5336L68.2336 128.215V134.899H67.3816V126.499H68.1136L71.7616 132.727L75.3736 126.499H76.1056Z" fill="#011627"/>
<rect x="2.95807" y="98.3113" width="23.6643" height="4.35798" rx="2.17899" fill="#FF9F1C"/>
<rect x="2.95807" y="89.5953" width="23.6643" height="4.35796" rx="2.17898" fill="#FF9F1C"/>
<rect x="2.95807" y="80.8794" width="23.6643" height="4.35796" rx="2.17898" fill="#011627"/>
<rect x="2.95807" y="72.1633" width="23.6643" height="4.35797" rx="2.17899" fill="#011627"/>
<rect x="2.95807" y="63.4474" width="23.6643" height="4.35796" rx="2.17898" fill="#011627"/>
<rect x="2.95807" y="54.7314" width="23.6643" height="4.35798" rx="2.17899" fill="#011627"/>
<rect x="2.95807" y="46.0155" width="23.6643" height="4.35797" rx="2.17899" fill="#011627"/>
<rect x="2.95807" y="37.2996" width="23.6643" height="4.35798" rx="2.17899" fill="#011627"/>
<rect x="2.95807" y="28.5836" width="23.6643" height="4.35798" rx="2.17899" fill="#011627"/>
<path d="M2.97636 111.499V119.899H2.11236V112.267H0.132361V111.499H2.97636ZM8.3323 119.971C7.6843 119.971 7.1043 119.799 6.5923 119.455C6.0883 119.111 5.6923 118.619 5.4043 117.979C5.1243 117.331 4.9843 116.571 4.9843 115.699C4.9843 114.827 5.1243 114.071 5.4043 113.431C5.6923 112.783 6.0883 112.287 6.5923 111.943C7.1043 111.599 7.6843 111.427 8.3323 111.427C8.9803 111.427 9.5563 111.599 10.0603 111.943C10.5723 112.287 10.9723 112.783 11.2603 113.431C11.5483 114.071 11.6923 114.827 11.6923 115.699C11.6923 116.571 11.5483 117.331 11.2603 117.979C10.9723 118.619 10.5723 119.111 10.0603 119.455C9.5563 119.799 8.9803 119.971 8.3323 119.971ZM8.3323 119.179C8.8203 119.179 9.2483 119.043 9.6163 118.771C9.9923 118.499 10.2843 118.103 10.4923 117.583C10.7003 117.063 10.8043 116.435 10.8043 115.699C10.8043 114.963 10.7003 114.335 10.4923 113.815C10.2843 113.295 9.9923 112.899 9.6163 112.627C9.2483 112.355 8.8203 112.219 8.3323 112.219C7.8443 112.219 7.4123 112.355 7.0363 112.627C6.6683 112.899 6.3803 113.295 6.1723 113.815C5.9643 114.335 5.8603 114.963 5.8603 115.699C5.8603 116.435 5.9643 117.063 6.1723 117.583C6.3803 118.103 6.6683 118.499 7.0363 118.771C7.4123 119.043 7.8443 119.179 8.3323 119.179ZM13.5776 114.847C13.4016 114.847 13.2496 114.783 13.1216 114.655C13.0016 114.527 12.9416 114.371 12.9416 114.187C12.9416 114.003 13.0016 113.851 13.1216 113.731C13.2496 113.603 13.4016 113.539 13.5776 113.539C13.7536 113.539 13.9056 113.603 14.0336 113.731C14.1616 113.851 14.2256 114.003 14.2256 114.187C14.2256 114.371 14.1616 114.527 14.0336 114.655C13.9056 114.783 13.7536 114.847 13.5776 114.847ZM13.5776 119.959C13.4016 119.959 13.2496 119.895 13.1216 119.767C13.0016 119.639 12.9416 119.483 12.9416 119.299C12.9416 119.115 13.0016 118.963 13.1216 118.843C13.2496 118.715 13.4016 118.651 13.5776 118.651C13.7536 118.651 13.9056 118.715 14.0336 118.843C14.1616 118.963 14.2256 119.115 14.2256 119.299C14.2256 119.483 14.1616 119.639 14.0336 119.767C13.9056 119.895 13.7536 119.959 13.5776 119.959ZM18.8206 119.971C18.1726 119.971 17.5926 119.799 17.0806 119.455C16.5766 119.111 16.1806 118.619 15.8926 117.979C15.6126 117.331 15.4726 116.571 15.4726 115.699C15.4726 114.827 15.6126 114.071 15.8926 113.431C16.1806 112.783 16.5766 112.287 17.0806 111.943C17.5926 111.599 18.1726 111.427 18.8206 111.427C19.4686 111.427 20.0446 111.599 20.5486 111.943C21.0606 112.287 21.4606 112.783 21.7486 113.431C22.0366 114.071 22.1806 114.827 22.1806 115.699C22.1806 116.571 22.0366 117.331 21.7486 117.979C21.4606 118.619 21.0606 119.111 20.5486 119.455C20.0446 119.799 19.4686 119.971 18.8206 119.971ZM18.8206 119.179C19.3086 119.179 19.7366 119.043 20.1046 118.771C20.4806 118.499 20.7726 118.103 20.9806 117.583C21.1886 117.063 21.2926 116.435 21.2926 115.699C21.2926 114.963 21.1886 114.335 20.9806 113.815C20.7726 113.295 20.4806 112.899 20.1046 112.627C19.7366 112.355 19.3086 112.219 18.8206 112.219C18.3326 112.219 17.9006 112.355 17.5246 112.627C17.1566 112.899 16.8686 113.295 16.6606 113.815C16.4526 114.335 16.3486 114.963 16.3486 115.699C16.3486 116.435 16.4526 117.063 16.6606 117.583C16.8686 118.103 17.1566 118.499 17.5246 118.771C17.9006 119.043 18.3326 119.179 18.8206 119.179ZM26.7659 119.971C26.1179 119.971 25.5379 119.799 25.0259 119.455C24.5219 119.111 24.1259 118.619 23.8379 117.979C23.5579 117.331 23.4179 116.571 23.4179 115.699C23.4179 114.827 23.5579 114.071 23.8379 113.431C24.1259 112.783 24.5219 112.287 25.0259 111.943C25.5379 111.599 26.1179 111.427 26.7659 111.427C27.4139 111.427 27.9899 111.599 28.4939 111.943C29.0059 112.287 29.4059 112.783 29.6939 113.431C29.9819 114.071 30.1259 114.827 30.1259 115.699C30.1259 116.571 29.9819 117.331 29.6939 117.979C29.4059 118.619 29.0059 119.111 28.4939 119.455C27.9899 119.799 27.4139 119.971 26.7659 119.971ZM26.7659 119.179C27.2539 119.179 27.6819 119.043 28.0499 118.771C28.4259 118.499 28.7179 118.103 28.9259 117.583C29.1339 117.063 29.2379 116.435 29.2379 115.699C29.2379 114.963 29.1339 114.335 28.9259 113.815C28.7179 113.295 28.4259 112.899 28.0499 112.627C27.6819 112.355 27.2539 112.219 26.7659 112.219C26.2779 112.219 25.8459 112.355 25.4699 112.627C25.1019 112.899 24.8139 113.295 24.6059 113.815C24.3979 114.335 24.2939 114.963 24.2939 115.699C24.2939 116.435 24.3979 117.063 24.6059 117.583C24.8139 118.103 25.1019 118.499 25.4699 118.771C25.8459 119.043 26.2779 119.179 26.7659 119.179ZM11.9865 132.655H7.30653L6.29853 134.899H5.37453L9.21453 126.499H10.0905L13.9305 134.899H12.9945L11.9865 132.655ZM11.6625 131.935L9.64653 127.423L7.63053 131.935H11.6625ZM24.0441 126.499V134.899H23.1921V128.179L19.8921 133.831H19.4721L16.1721 128.215V134.899H15.3201V126.499H16.0521L19.7001 132.727L23.3121 126.499H24.0441Z" fill="#011627"/>
<path d="M93.3241 4.2V14H92.3301V6.16L88.4801 12.754H87.9901L84.1401 6.202V14H83.1461V4.2H84.0001L88.2561 11.466L92.4701 4.2H93.3241ZM99.5672 14.07C98.8579 14.07 98.2186 13.9113 97.6492 13.594C97.0799 13.2673 96.6319 12.8193 96.3052 12.25C95.9786 11.6807 95.8152 11.0367 95.8152 10.318C95.8152 9.59933 95.9786 8.95533 96.3052 8.386C96.6319 7.81667 97.0799 7.37333 97.6492 7.056C98.2186 6.73867 98.8579 6.58 99.5672 6.58C100.277 6.58 100.916 6.73867 101.485 7.056C102.055 7.37333 102.498 7.81667 102.815 8.386C103.142 8.95533 103.305 9.59933 103.305 10.318C103.305 11.0367 103.142 11.6807 102.815 12.25C102.498 12.8193 102.055 13.2673 101.485 13.594C100.916 13.9113 100.277 14.07 99.5672 14.07ZM99.5672 13.188C100.09 13.188 100.557 13.0713 100.967 12.838C101.387 12.5953 101.714 12.2547 101.947 11.816C102.181 11.3773 102.297 10.878 102.297 10.318C102.297 9.758 102.181 9.25867 101.947 8.82C101.714 8.38133 101.387 8.04533 100.967 7.812C100.557 7.56933 100.09 7.448 99.5672 7.448C99.0446 7.448 98.5732 7.56933 98.1532 7.812C97.7426 8.04533 97.4159 8.38133 97.1732 8.82C96.9399 9.25867 96.8232 9.758 96.8232 10.318C96.8232 10.878 96.9399 11.3773 97.1732 11.816C97.4159 12.2547 97.7426 12.5953 98.1532 12.838C98.5732 13.0713 99.0446 13.188 99.5672 13.188ZM107.559 14.07C106.961 14.07 106.387 13.986 105.837 13.818C105.295 13.6407 104.871 13.4213 104.563 13.16L105.011 12.376C105.319 12.6187 105.706 12.8193 106.173 12.978C106.639 13.1273 107.125 13.202 107.629 13.202C108.301 13.202 108.795 13.0993 109.113 12.894C109.439 12.6793 109.603 12.3807 109.603 11.998C109.603 11.7273 109.514 11.5173 109.337 11.368C109.159 11.2093 108.935 11.0927 108.665 11.018C108.394 10.934 108.035 10.8547 107.587 10.78C106.989 10.668 106.509 10.556 106.145 10.444C105.781 10.3227 105.468 10.122 105.207 9.842C104.955 9.562 104.829 9.17467 104.829 8.68C104.829 8.064 105.085 7.56 105.599 7.168C106.112 6.776 106.826 6.58 107.741 6.58C108.217 6.58 108.693 6.64533 109.169 6.776C109.645 6.89733 110.037 7.06067 110.345 7.266L109.911 8.064C109.304 7.644 108.581 7.434 107.741 7.434C107.106 7.434 106.625 7.546 106.299 7.77C105.981 7.994 105.823 8.288 105.823 8.652C105.823 8.932 105.911 9.156 106.089 9.324C106.275 9.492 106.504 9.618 106.775 9.702C107.045 9.77667 107.419 9.856 107.895 9.94C108.483 10.052 108.954 10.164 109.309 10.276C109.663 10.388 109.967 10.5793 110.219 10.85C110.471 11.1207 110.597 11.494 110.597 11.97C110.597 12.614 110.326 13.1273 109.785 13.51C109.253 13.8833 108.511 14.07 107.559 14.07ZM116.562 13.552C116.376 13.72 116.142 13.8507 115.862 13.944C115.592 14.028 115.307 14.07 115.008 14.07C114.318 14.07 113.786 13.8833 113.412 13.51C113.039 13.1367 112.852 12.6093 112.852 11.928V7.476H111.536V6.636H112.852V5.026H113.846V6.636H116.086V7.476H113.846V11.872C113.846 12.3107 113.954 12.6467 114.168 12.88C114.392 13.104 114.71 13.216 115.12 13.216C115.326 13.216 115.522 13.1833 115.708 13.118C115.904 13.0527 116.072 12.9593 116.212 12.838L116.562 13.552ZM128.892 11.382H123.432L122.256 14H121.178L125.658 4.2H126.68L131.16 14H130.068L128.892 11.382ZM128.514 10.542L126.162 5.278L123.81 10.542H128.514ZM135.805 14.07C135.077 14.07 134.423 13.9113 133.845 13.594C133.275 13.2767 132.827 12.8333 132.501 12.264C132.174 11.6853 132.011 11.0367 132.011 10.318C132.011 9.59933 132.174 8.95533 132.501 8.386C132.827 7.81667 133.275 7.37333 133.845 7.056C134.423 6.73867 135.077 6.58 135.805 6.58C136.439 6.58 137.004 6.706 137.499 6.958C138.003 7.20067 138.399 7.56 138.689 8.036L137.947 8.54C137.704 8.176 137.396 7.90533 137.023 7.728C136.649 7.54133 136.243 7.448 135.805 7.448C135.273 7.448 134.792 7.56933 134.363 7.812C133.943 8.04533 133.611 8.38133 133.369 8.82C133.135 9.25867 133.019 9.758 133.019 10.318C133.019 10.8873 133.135 11.3913 133.369 11.83C133.611 12.2593 133.943 12.5953 134.363 12.838C134.792 13.0713 135.273 13.188 135.805 13.188C136.243 13.188 136.649 13.0993 137.023 12.922C137.396 12.7447 137.704 12.474 137.947 12.11L138.689 12.614C138.399 13.09 138.003 13.454 137.499 13.706C136.995 13.9487 136.43 14.07 135.805 14.07ZM144.851 13.552C144.665 13.72 144.431 13.8507 144.151 13.944C143.881 14.028 143.596 14.07 143.297 14.07C142.607 14.07 142.075 13.8833 141.701 13.51C141.328 13.1367 141.141 12.6093 141.141 11.928V7.476H139.825V6.636H141.141V5.026H142.135V6.636H144.375V7.476H142.135V11.872C142.135 12.3107 142.243 12.6467 142.457 12.88C142.681 13.104 142.999 13.216 143.409 13.216C143.615 13.216 143.811 13.1833 143.997 13.118C144.193 13.0527 144.361 12.9593 144.501 12.838L144.851 13.552ZM146.911 6.636H147.905V14H146.911V6.636ZM147.415 5.026C147.209 5.026 147.037 4.956 146.897 4.816C146.757 4.676 146.687 4.508 146.687 4.312C146.687 4.12533 146.757 3.962 146.897 3.822C147.037 3.682 147.209 3.612 147.415 3.612C147.62 3.612 147.793 3.682 147.933 3.822C148.073 3.95267 148.143 4.11133 148.143 4.298C148.143 4.50333 148.073 4.676 147.933 4.816C147.793 4.956 147.62 5.026 147.415 5.026ZM157.109 6.636L153.833 14H152.811L149.549 6.636H150.585L153.343 12.908L156.129 6.636H157.109ZM164.965 10.626H158.805C158.861 11.3913 159.155 12.012 159.687 12.488C160.219 12.9547 160.891 13.188 161.703 13.188C162.161 13.188 162.581 13.1087 162.963 12.95C163.346 12.782 163.677 12.5393 163.957 12.222L164.517 12.866C164.191 13.258 163.78 13.5567 163.285 13.762C162.8 13.9673 162.263 14.07 161.675 14.07C160.919 14.07 160.247 13.9113 159.659 13.594C159.081 13.2673 158.628 12.8193 158.301 12.25C157.975 11.6807 157.811 11.0367 157.811 10.318C157.811 9.59933 157.965 8.95533 158.273 8.386C158.591 7.81667 159.02 7.37333 159.561 7.056C160.112 6.73867 160.728 6.58 161.409 6.58C162.091 6.58 162.702 6.73867 163.243 7.056C163.785 7.37333 164.209 7.81667 164.517 8.386C164.825 8.946 164.979 9.59 164.979 10.318L164.965 10.626ZM161.409 7.434C160.7 7.434 160.103 7.66267 159.617 8.12C159.141 8.568 158.871 9.156 158.805 9.884H164.027C163.962 9.156 163.687 8.568 163.201 8.12C162.725 7.66267 162.128 7.434 161.409 7.434ZM179.567 4.2V14H178.545V9.478H172.413V14H171.377V4.2H172.413V8.568H178.545V4.2H179.567ZM185.815 14.07C185.106 14.07 184.467 13.9113 183.897 13.594C183.328 13.2673 182.88 12.8193 182.553 12.25C182.227 11.6807 182.063 11.0367 182.063 10.318C182.063 9.59933 182.227 8.95533 182.553 8.386C182.88 7.81667 183.328 7.37333 183.897 7.056C184.467 6.73867 185.106 6.58 185.815 6.58C186.525 6.58 187.164 6.73867 187.733 7.056C188.303 7.37333 188.746 7.81667 189.063 8.386C189.39 8.95533 189.553 9.59933 189.553 10.318C189.553 11.0367 189.39 11.6807 189.063 12.25C188.746 12.8193 188.303 13.2673 187.733 13.594C187.164 13.9113 186.525 14.07 185.815 14.07ZM185.815 13.188C186.338 13.188 186.805 13.0713 187.215 12.838C187.635 12.5953 187.962 12.2547 188.195 11.816C188.429 11.3773 188.545 10.878 188.545 10.318C188.545 9.758 188.429 9.25867 188.195 8.82C187.962 8.38133 187.635 8.04533 187.215 7.812C186.805 7.56933 186.338 7.448 185.815 7.448C185.293 7.448 184.821 7.56933 184.401 7.812C183.991 8.04533 183.664 8.38133 183.421 8.82C183.188 9.25867 183.071 9.758 183.071 10.318C183.071 10.878 183.188 11.3773 183.421 11.816C183.664 12.2547 183.991 12.5953 184.401 12.838C184.821 13.0713 185.293 13.188 185.815 13.188ZM198.469 6.636V14H197.517V12.656C197.255 13.104 196.896 13.454 196.439 13.706C195.981 13.9487 195.459 14.07 194.871 14.07C193.909 14.07 193.149 13.804 192.589 13.272C192.038 12.7307 191.763 11.942 191.763 10.906V6.636H192.757V10.808C192.757 11.5827 192.948 12.1707 193.331 12.572C193.713 12.9733 194.259 13.174 194.969 13.174C195.743 13.174 196.355 12.9407 196.803 12.474C197.251 11.998 197.475 11.34 197.475 10.5V6.636H198.469ZM202.455 8.078C202.688 7.58333 203.033 7.21 203.491 6.958C203.957 6.706 204.531 6.58 205.213 6.58V7.546L204.975 7.532C204.2 7.532 203.593 7.77 203.155 8.246C202.716 8.722 202.497 9.38933 202.497 10.248V14H201.503V6.636H202.455V8.078ZM209.291 14.07C208.694 14.07 208.12 13.986 207.569 13.818C207.028 13.6407 206.603 13.4213 206.295 13.16L206.743 12.376C207.051 12.6187 207.438 12.8193 207.905 12.978C208.372 13.1273 208.857 13.202 209.361 13.202C210.033 13.202 210.528 13.0993 210.845 12.894C211.172 12.6793 211.335 12.3807 211.335 11.998C211.335 11.7273 211.246 11.5173 211.069 11.368C210.892 11.2093 210.668 11.0927 210.397 11.018C210.126 10.934 209.767 10.8547 209.319 10.78C208.722 10.668 208.241 10.556 207.877 10.444C207.513 10.3227 207.2 10.122 206.939 9.842C206.687 9.562 206.561 9.17467 206.561 8.68C206.561 8.064 206.818 7.56 207.331 7.168C207.844 6.776 208.558 6.58 209.473 6.58C209.949 6.58 210.425 6.64533 210.901 6.776C211.377 6.89733 211.769 7.06067 212.077 7.266L211.643 8.064C211.036 7.644 210.313 7.434 209.473 7.434C208.838 7.434 208.358 7.546 208.031 7.77C207.714 7.994 207.555 8.288 207.555 8.652C207.555 8.932 207.644 9.156 207.821 9.324C208.008 9.492 208.236 9.618 208.507 9.702C208.778 9.77667 209.151 9.856 209.627 9.94C210.215 10.052 210.686 10.164 211.041 10.276C211.396 10.388 211.699 10.5793 211.951 10.85C212.203 11.1207 212.329 11.494 212.329 11.97C212.329 12.614 212.058 13.1273 211.517 13.51C210.985 13.8833 210.243 14.07 209.291 14.07Z" fill="black" fill-opacity="0.6"/>
</svg>
